<svg width="126" height="40" viewBox="0 0 126 40" fill="none" xmlns="http://www.w3.org/2000/svg">
<path d="M35.2517 0H4.74834C2.1259 0 0 2.12591 0 4.74834V35.2517C0 37.8741 2.1259 40 4.74834 40H35.2517C37.8741 40 40 37.8741 40 35.2517V4.74834C40 2.12591 37.8741 0 35.2517 0Z" fill="url(#paint0_linear_2884_409)"/>
<path fill-rule="evenodd" clip-rule="evenodd" d="M24.2778 21.2875C25.1156 20.4445 26.0823 19.8104 27.3248 20.0656C27.853 20.1878 28.3516 20.4139 28.7916 20.7307C31.4957 22.579 35.8625 25.7136 35.9296 25.7626C34.8327 23.1445 33.605 20.5832 32.251 18.0884C28.8792 12.7755 24.332 21.1869 24.2778 21.2875Z" fill="url(#paint1_linear_2884_409)"/>
<path fill-rule="evenodd" clip-rule="evenodd" d="M20.1534 19.6043C20.6681 19.3201 21.1274 18.9455 21.5093 18.4984C21.6459 18.3464 21.7671 18.1865 21.9089 18.019C24.7445 14.3894 26.4664 7.77214 32.233 18.1092C28.8612 12.7963 24.314 21.2026 24.2598 21.3083C23.0431 22.5327 22.1048 24.1928 21.0221 24.1928C19.5605 24.1928 16.449 21.615 13.8042 20.3983C16.7326 21.1407 18.8232 20.4395 20.1534 19.6043Z" fill="url(#paint2_linear_2884_409)"/>
<path fill-rule="evenodd" clip-rule="evenodd" d="M4.37695 25.2214C6.30516 24.6775 9.01703 19.9678 11.3371 19.7539C12.0511 19.6894 12.9121 19.9524 13.8298 20.3777C16.7324 21.151 18.823 20.4396 20.1532 19.6043C19.3103 20.0374 18.3487 20.0658 17.1655 19.3981C16.2924 18.8587 15.5095 18.1854 14.8455 17.4029C10.3755 13.3583 6.25103 21.9141 4.37695 25.2214Z" fill="url(#paint3_linear_2884_409)"/>
<path fill-rule="evenodd" clip-rule="evenodd" d="M61.0403 18.4108C61.0499 17.4344 60.8494 16.4673 60.4526 15.5752C60.0759 14.7156 59.5347 13.9379 58.8595 13.2861C58.1764 12.6237 57.3755 12.0948 56.4982 11.7265C55.5849 11.3409 54.6024 11.1461 53.611 11.1542C51.665 11.1533 49.7969 11.9193 48.4116 13.2861C47.7364 13.9379 47.1952 14.7156 46.8185 15.5752C46.4308 16.4666 46.2307 17.4283 46.2307 18.4005C46.2307 19.3726 46.4308 20.3343 46.8185 21.2258C47.5856 22.9722 48.995 24.3567 50.7548 25.0925C51.6573 25.4781 52.6297 25.6729 53.611 25.6648C54.6024 25.6729 55.5849 25.4781 56.4982 25.0925C57.3741 24.7273 58.1747 24.2028 58.8595 23.5458C59.5379 22.8847 60.0793 22.0963 60.4526 21.2258L61.0403 18.3902V18.4108ZM63.5898 26.8222C63.6033 27.0061 63.5738 27.1906 63.5035 27.3611C63.4333 27.5316 63.3242 27.6834 63.1851 27.8044C62.9407 28.0138 62.6304 28.1306 62.3086 28.1343C61.9907 28.1343 61.6841 28.0167 61.4476 27.8044C61.3076 27.6839 61.1979 27.5323 61.1271 27.3617C61.0564 27.1911 61.0267 27.0064 61.0403 26.8222V24.9223C60.1047 25.9129 58.9836 26.7099 57.7407 27.2682C56.4448 27.8522 55.0375 28.1478 53.6162 28.1343C52.7243 28.138 51.8363 28.0147 50.9791 27.7683C50.1516 27.5468 49.3575 27.2156 48.6178 26.7835C47.8799 26.3728 47.2032 25.8609 46.6071 25.2626C46.002 24.6827 45.4813 24.0206 45.0604 23.2957C44.6285 22.5743 44.2947 21.7984 44.068 20.9886C43.816 20.1526 43.6892 19.2839 43.6916 18.4108C43.6831 17.1096 43.9538 15.8218 44.4856 14.6343C44.9847 13.4723 45.7093 12.4209 46.6174 11.5409C48.4857 9.70748 51.0038 8.68804 53.6214 8.70529C54.5126 8.7065 55.3999 8.82348 56.261 9.0533C57.0945 9.28484 57.8975 9.61453 58.6533 10.0354C59.385 10.4495 60.0615 10.9545 60.6665 11.5383C61.2651 12.1313 61.7913 12.7933 62.2338 13.5103C62.6683 14.2384 63.0104 15.0177 63.2521 15.8304C63.48 16.6706 63.5935 17.5377 63.5898 18.4082V26.8222Z" fill="#515151"/>
<path fill-rule="evenodd" clip-rule="evenodd" d="M83.3537 18.4108C83.3629 17.4347 83.1634 16.4679 82.7686 15.5752C82.39 14.716 81.8481 13.9385 81.1729 13.2861C80.4898 12.6237 79.689 12.0948 78.8116 11.7265C77.8983 11.3409 76.9158 11.1461 75.9245 11.1542C73.9784 11.1533 72.1103 11.9193 70.725 13.2861C70.0515 13.9394 69.5105 14.7166 69.1319 15.5752C68.7442 16.4666 68.5441 17.4283 68.5441 18.4005C68.5441 19.3726 68.7442 20.3343 69.1319 21.2258C69.899 22.9722 71.3084 24.3567 73.0683 25.0925C73.9708 25.4778 74.9432 25.6726 75.9245 25.6648C76.9158 25.6729 77.8983 25.4781 78.8116 25.0925C79.6875 24.7273 80.4882 24.2028 81.1729 23.5458C81.8513 22.8842 82.3934 22.096 82.7686 21.2258L83.3537 18.3902V18.4108ZM85.9032 18.4108C85.9121 19.712 85.6441 21.0002 85.117 22.1899C84.6093 23.3458 83.8817 24.392 82.9748 25.2704C82.0606 26.1622 80.9856 26.8724 79.8067 27.3635C78.5785 27.8823 77.2576 28.1454 75.9245 28.1369C74.5396 28.1327 73.1703 27.8449 71.901 27.2911C70.6317 26.7374 69.4892 25.9295 68.5442 24.9172V35.1975C68.5566 35.3844 68.5267 35.5716 68.4566 35.7453C68.3865 35.9189 68.2781 36.0745 68.1395 36.2003C67.8955 36.4105 67.585 36.5274 67.263 36.5303C66.9451 36.5302 66.6385 36.4127 66.402 36.2003C66.263 36.0746 66.1542 35.9191 66.0837 35.7455C66.0132 35.5719 65.9828 35.3846 65.9947 35.1975V18.4108C65.9862 17.1096 66.2569 15.8218 66.7887 14.6343C67.2878 13.4723 68.0124 12.4209 68.9205 11.5409C70.7889 9.70748 73.3069 8.68804 75.9245 8.70529C76.819 8.70392 77.7098 8.81918 78.5745 9.04814C79.4089 9.27696 80.2122 9.60678 80.9667 10.0303C81.6985 10.4443 82.3749 10.9493 82.98 11.5332C83.5769 12.1245 84.1013 12.7847 84.5421 13.5C84.9726 14.2294 85.3128 15.0085 85.5552 15.8201L85.9032 18.4108Z" fill="#515151"/>
<path fill-rule="evenodd" clip-rule="evenodd" d="M108.281 18.5888C108.279 18.7426 108.243 18.894 108.175 19.0322C108.103 19.1801 108.003 19.313 107.881 19.424C107.762 19.539 107.624 19.6338 107.474 19.705C107.327 19.7778 107.164 19.8157 107 19.8159H90.9658C91.1422 20.6659 91.4706 21.4772 91.9351 22.2107C92.3742 22.9446 92.9459 23.5905 93.621 24.1157C94.9722 25.2232 96.666 25.8273 98.4131 25.8248C98.9327 25.8248 99.4509 25.7721 99.9598 25.6675C100.456 25.5695 100.941 25.4236 101.409 25.2319C102.36 24.841 103.22 24.2574 103.935 23.5176C104.063 23.3626 104.225 23.2391 104.409 23.1567C104.568 23.1019 104.734 23.0731 104.901 23.0717C105.236 23.0682 105.558 23.1949 105.801 23.4248C105.918 23.5352 106.011 23.6687 106.074 23.817C106.136 23.9652 106.167 24.1249 106.165 24.2858C106.145 24.6379 106.004 24.9724 105.765 25.2319C105.296 25.7143 104.777 26.1463 104.218 26.5208C103.647 26.9033 103.043 27.2346 102.414 27.5107C101.803 27.7766 101.164 27.9712 100.509 28.0907C99.8197 28.2139 99.1209 28.2752 98.4208 28.2737C97.5172 28.2756 96.6176 28.1524 95.7477 27.9076C94.911 27.6735 94.1067 27.3367 93.3529 26.9049C92.5953 26.4901 91.9009 25.9693 91.2906 25.3582C90.6732 24.7654 90.139 24.0916 89.7027 23.3552C89.2566 22.6242 88.9098 21.8371 88.6715 21.0146C88.424 20.1654 88.2999 19.2851 88.3029 18.4006C88.2948 17.0796 88.5626 15.7713 89.0892 14.5597C89.5866 13.3866 90.3081 12.3219 91.2133 11.4251C92.1217 10.5184 93.1977 9.79702 94.3814 9.30095C95.6193 8.78336 96.9472 8.51533 98.2889 8.51223C99.6306 8.50914 100.96 8.77104 102.2 9.2829C104.569 10.3033 106.464 12.1819 107.505 14.5417C108.016 15.7044 108.279 16.9606 108.278 18.2305V18.5734L108.281 18.5888ZM105.67 17.3592C105.557 16.5568 105.316 15.7778 104.956 15.0521C104.601 14.3415 104.132 13.6937 103.569 13.1342C102.883 12.4751 102.083 11.9466 101.207 11.5746C100.289 11.1996 99.3048 11.0112 98.3126 11.0204C96.5159 11.0124 94.7768 11.6532 93.4147 12.8248C92.0687 13.9862 91.1894 15.5964 90.94 17.3566L105.67 17.3592Z" fill="#515151"/>
<path fill-rule="evenodd" clip-rule="evenodd" d="M125.088 27.0156C125.09 27.1728 125.057 27.3284 124.991 27.4711C124.925 27.6138 124.828 27.74 124.707 27.8405C124.516 28.0062 124.282 28.1148 124.032 28.154C123.783 28.1932 123.527 28.1614 123.294 28.0622C123.087 27.9698 122.905 27.8293 122.763 27.6523L116.87 20.1947L110.962 27.6523C110.834 27.8285 110.664 27.9695 110.467 28.0622C110.288 28.1339 110.098 28.1707 109.905 28.1704C109.58 28.1779 109.264 28.0597 109.023 27.8405C108.902 27.7403 108.804 27.6143 108.737 27.4716C108.67 27.3289 108.636 27.1731 108.637 27.0156C108.657 26.7017 108.772 26.4013 108.967 26.1546L115.267 18.1633L109.338 10.6748C109.138 10.4408 109.022 10.1469 109.008 9.83956C109.006 9.6739 109.039 9.5097 109.106 9.35805C109.173 9.2064 109.271 9.07083 109.395 8.96052C109.641 8.74292 109.96 8.62525 110.289 8.63056C110.477 8.63158 110.664 8.66832 110.838 8.73883C111.037 8.83652 111.208 8.98391 111.333 9.16675L116.881 16.1269L122.392 9.16675C122.526 8.98397 122.703 8.83701 122.908 8.73883C123.142 8.63939 123.4 8.60746 123.652 8.64663C123.904 8.6858 124.14 8.79451 124.333 8.96052C124.457 9.07083 124.555 9.2064 124.622 9.35805C124.689 9.5097 124.722 9.6739 124.72 9.83956C124.706 10.1469 124.59 10.4408 124.39 10.6748L118.461 18.1633L124.792 26.1546C124.905 26.2887 124.992 26.4425 125.05 26.6083L125.088 27.0156Z" fill="#515151"/>
<path fill-rule="evenodd" clip-rule="evenodd" d="M110.946 27.7323C110.819 27.9105 110.648 28.0526 110.449 28.1447C110.27 28.2183 110.078 28.2559 109.884 28.2556C109.557 28.2631 109.239 28.144 108.998 27.9231C108.875 27.8223 108.777 27.6955 108.709 27.552C108.642 27.4084 108.608 27.2516 108.608 27.093C108.628 26.7771 108.744 26.4747 108.941 26.2268L115.277 18.1841L109.312 10.6414C109.108 10.4063 108.99 10.1092 108.977 9.79841C108.975 9.63154 109.009 9.46621 109.077 9.31364C109.144 9.16107 109.244 9.02484 109.369 8.91422C109.616 8.69551 109.936 8.57693 110.266 8.58168C110.456 8.58235 110.644 8.62 110.82 8.69253C111.02 8.79057 111.192 8.9389 111.318 9.12302C120.214 20.3004 111.691 9.57156 118.481 18.1841L110.946 27.7323Z" fill="url(#paint4_linear_2884_409)"/>
<path fill-rule="evenodd" clip-rule="evenodd" d="M73.8338 34.329C73.8351 34.1604 73.8008 33.9936 73.7332 33.8392C73.6736 33.6915 73.5861 33.5567 73.4755 33.4422C73.3594 33.329 73.2241 33.2374 73.0759 33.1715C72.9209 33.1063 72.7543 33.0729 72.5861 33.0736C72.4204 33.0729 72.2564 33.1063 72.1041 33.1715C71.9553 33.2348 71.8204 33.3268 71.7071 33.4422C71.5898 33.5584 71.4967 33.6968 71.4331 33.8492C71.3696 34.0016 71.3369 34.1651 71.3369 34.3303C71.3369 34.4954 71.3696 34.6589 71.4331 34.8113C71.4967 34.9637 71.5898 35.1021 71.7071 35.2183C71.8207 35.33 71.9558 35.4177 72.1041 35.4761C72.2558 35.5434 72.4201 35.5777 72.5861 35.5766C72.7546 35.5777 72.9215 35.5434 73.0759 35.4761C73.2237 35.4152 73.3591 35.3279 73.4755 35.2183C73.5861 35.1028 73.6736 34.9672 73.7332 34.8188L73.8338 34.329ZM74.2643 34.329C74.2613 34.6591 74.1622 34.9812 73.979 35.2559C73.7959 35.5305 73.5367 35.7459 73.2331 35.8757C73.0268 35.9659 72.8036 36.0116 72.5784 36.0097C72.4265 36.0107 72.2753 35.989 72.1298 35.9453C71.9894 35.9074 71.8549 35.8501 71.7303 35.7751C71.481 35.6289 71.2733 35.4212 71.1271 35.1719C71.0524 35.0477 70.9944 34.9142 70.9544 34.7749C70.9108 34.6303 70.8891 34.48 70.8899 34.329V31.4238C70.8872 31.3919 70.892 31.3599 70.9041 31.3303C70.9162 31.3007 70.9352 31.2744 70.9595 31.2536C70.998 31.2157 71.0498 31.1944 71.1039 31.1943C71.1592 31.1954 71.2123 31.2165 71.2534 31.2536C71.2767 31.275 71.2949 31.3015 71.3065 31.331C71.3181 31.3604 71.3229 31.3922 71.3204 31.4238V33.1999C71.4744 33.0266 71.6633 32.8878 71.8746 32.7926C72.0927 32.6919 72.3304 32.6408 72.5706 32.6431C72.7217 32.6467 72.8716 32.6701 73.0166 32.7127C73.1579 32.7527 73.2939 32.8098 73.4213 32.8828C73.5454 32.9537 73.6598 33.0404 73.7616 33.1406C73.8609 33.2433 73.9474 33.3575 74.0194 33.4809C74.0931 33.6083 74.1511 33.7442 74.1921 33.8856L74.2643 34.329Z" fill="url(#paint5_linear_2884_409)"/>
<path fill-rule="evenodd" clip-rule="evenodd" d="M97.9315 32.857C97.931 32.9113 97.9109 32.9635 97.8748 33.004C97.854 33.0283 97.8278 33.0472 97.7982 33.0593C97.7686 33.0714 97.7365 33.0763 97.7047 33.0736H96.6503V34.5584C96.6542 34.8283 96.7612 35.0866 96.9494 35.2802C97.0442 35.3733 97.1551 35.4484 97.2768 35.5019C97.4039 35.5592 97.542 35.5882 97.6815 35.5869C97.7128 35.5845 97.7443 35.589 97.7737 35.6002C97.8031 35.6113 97.8297 35.6288 97.8516 35.6514C97.8878 35.6912 97.9079 35.7432 97.9079 35.797C97.9079 35.8509 97.8878 35.9028 97.8516 35.9427C97.8304 35.9665 97.8041 35.9851 97.7746 35.9972C97.7451 36.0093 97.7133 36.0144 97.6815 36.0123C97.4858 36.0138 97.2919 35.9752 97.1118 35.8988C96.7645 35.7495 96.4878 35.4727 96.3384 35.1255C96.2605 34.9476 96.221 34.7552 96.2224 34.561V31.4238C96.2197 31.3919 96.2245 31.3599 96.2367 31.3303C96.2488 31.3007 96.2677 31.2744 96.292 31.2536C96.3308 31.2162 96.3825 31.195 96.4364 31.1943C96.4918 31.1954 96.5449 31.2165 96.5859 31.2536C96.6093 31.275 96.6274 31.3015 96.639 31.331C96.6506 31.3604 96.6554 31.3922 96.6529 31.4238V32.6431H97.7073C97.7384 32.6403 97.7698 32.6444 97.7992 32.6551C97.8286 32.6658 97.8553 32.6828 97.8774 32.7049L97.9315 32.857Z" fill="url(#paint6_linear_2884_409)"/>
<path fill-rule="evenodd" clip-rule="evenodd" d="M109.704 32.8567C109.704 32.9109 109.684 32.9631 109.648 33.0036C109.627 33.0279 109.6 33.0469 109.571 33.059C109.541 33.0711 109.509 33.076 109.477 33.0732H108.423V35.8057C108.426 35.8381 108.421 35.8706 108.41 35.901C108.398 35.9313 108.38 35.9587 108.356 35.981C108.314 36.0165 108.261 36.0365 108.207 36.0377C108.153 36.0368 108.102 36.0167 108.062 35.981C108.038 35.9593 108.019 35.9321 108.006 35.9017C107.994 35.8712 107.99 35.8383 107.993 35.8057V32.6865C107.991 32.4923 108.031 32.2999 108.109 32.122C108.182 31.949 108.287 31.7908 108.418 31.6554C108.553 31.5203 108.714 31.4133 108.891 31.3407C109.068 31.2682 109.258 31.2314 109.449 31.2327C109.48 31.2301 109.512 31.2345 109.541 31.2456C109.571 31.2568 109.597 31.2744 109.619 31.2971C109.654 31.3373 109.674 31.3883 109.676 31.4415C109.674 31.4954 109.654 31.5472 109.619 31.5884C109.598 31.6124 109.572 31.6311 109.542 31.6432C109.513 31.6553 109.481 31.6603 109.449 31.658C109.31 31.6563 109.172 31.6835 109.044 31.7379C108.923 31.7923 108.812 31.8683 108.717 31.9622C108.627 32.0518 108.556 32.1576 108.506 32.2741C108.451 32.3959 108.421 32.5274 108.418 32.6608H109.472C109.503 32.658 109.535 32.6621 109.564 32.6728C109.594 32.6835 109.62 32.7005 109.642 32.7226L109.704 32.8567Z" fill="url(#paint7_linear_2884_409)"/>
<path fill-rule="evenodd" clip-rule="evenodd" d="M77.9736 34.5581C77.9759 34.7538 77.9373 34.9479 77.8602 35.1278C77.7832 35.301 77.6758 35.459 77.5431 35.5944C77.4087 35.7269 77.2504 35.8327 77.0766 35.9063C76.8968 35.9845 76.7029 36.0249 76.5069 36.0249C76.3108 36.0249 76.1169 35.9845 75.9372 35.9063C75.7622 35.8334 75.603 35.7275 75.468 35.5944C75.3336 35.461 75.2268 35.3024 75.1535 35.1278C75.0735 34.9486 75.0331 34.7543 75.0349 34.5581V32.8748C75.0322 32.843 75.037 32.8109 75.0492 32.7813C75.0613 32.7517 75.0802 32.7255 75.1045 32.7047C75.1445 32.6678 75.1971 32.6475 75.2515 32.648C75.3057 32.6485 75.3579 32.6686 75.3984 32.7047C75.4227 32.7255 75.4417 32.7517 75.4538 32.7813C75.4659 32.8109 75.4708 32.843 75.468 32.8748V34.5581C75.4668 34.6962 75.494 34.8331 75.5479 34.9603C75.6007 35.0845 75.6768 35.1974 75.7722 35.2928C75.8663 35.3879 75.9785 35.4633 76.1022 35.5145C76.2297 35.5706 76.3675 35.5996 76.5069 35.5996C76.6462 35.5996 76.784 35.5706 76.9116 35.5145C77.0337 35.462 77.1448 35.3867 77.239 35.2928C77.3327 35.196 77.4086 35.0834 77.4632 34.9603C77.5171 34.8331 77.5443 34.6962 77.5431 34.5581V32.8748C77.5407 32.8432 77.5454 32.8115 77.5571 32.782C77.5687 32.7525 77.5868 32.7261 77.6102 32.7047C77.6515 32.6682 77.7046 32.6481 77.7597 32.648C77.814 32.648 77.8664 32.6682 77.9066 32.7047C77.9304 32.7257 77.9489 32.7521 77.9606 32.7817C77.9722 32.8113 77.9767 32.8432 77.9736 32.8748V34.5581Z" fill="url(#paint8_linear_2884_409)"/>
<path fill-rule="evenodd" clip-rule="evenodd" d="M79.2887 35.806C79.292 35.8384 79.2876 35.8711 79.276 35.9016C79.2643 35.932 79.2457 35.9593 79.2217 35.9813C79.181 36.0179 79.1282 36.0381 79.0734 36.0381C79.0187 36.0381 78.9659 36.0179 78.9252 35.9813C78.9011 35.9593 78.8825 35.932 78.8709 35.9016C78.8593 35.8711 78.8549 35.8384 78.8582 35.806V32.8595C78.8553 32.8275 78.8599 32.7953 78.8715 32.7653C78.8831 32.7354 78.9015 32.7085 78.9252 32.6868C78.9651 32.6485 79.0182 32.6272 79.0734 32.6272C79.1287 32.6272 79.1818 32.6485 79.2217 32.6868C79.2454 32.7085 79.2638 32.7354 79.2754 32.7653C79.287 32.7953 79.2916 32.8275 79.2887 32.8595V35.806ZM79.4021 31.8722C79.4021 31.9137 79.3942 31.9548 79.3789 31.9934C79.3625 32.0333 79.3379 32.0693 79.3067 32.0991C79.2775 32.1291 79.2424 32.1528 79.2036 32.1687C79.1623 32.1872 79.1175 32.1969 79.0721 32.197C79.0277 32.1968 78.9837 32.1871 78.9433 32.1687C78.9037 32.1542 78.8683 32.1303 78.8401 32.0991C78.8097 32.0692 78.786 32.0331 78.7705 31.9934C78.7524 31.9555 78.7427 31.9142 78.7422 31.8722C78.7424 31.8277 78.7521 31.7838 78.7705 31.7433C78.8031 31.6628 78.8647 31.5974 78.9433 31.5603C78.9844 31.5447 79.0281 31.5369 79.0721 31.5371C79.117 31.5368 79.1616 31.5447 79.2036 31.5603C79.2416 31.5799 79.2763 31.6051 79.3067 31.6351C79.3374 31.6663 79.3619 31.703 79.3789 31.7433L79.4021 31.8722Z" fill="url(#paint9_linear_2884_409)"/>
<path fill-rule="evenodd" clip-rule="evenodd" d="M80.6032 35.8061C80.6059 35.8384 80.6013 35.871 80.5897 35.9013C80.5781 35.9317 80.5598 35.959 80.5362 35.9813C80.4943 36.0168 80.4415 36.0368 80.3867 36.0381C80.3332 36.0376 80.2818 36.0174 80.2423 35.9813C80.2178 35.9596 80.1987 35.9325 80.1866 35.902C80.1745 35.8716 80.1698 35.8387 80.1727 35.8061V31.4238C80.17 31.3919 80.1748 31.3599 80.1869 31.3303C80.1991 31.3007 80.218 31.2744 80.2423 31.2536C80.2808 31.2157 80.3327 31.1944 80.3867 31.1943C80.442 31.1954 80.4952 31.2165 80.5362 31.2536C80.5596 31.275 80.5777 31.3015 80.5893 31.331C80.6009 31.3604 80.6057 31.3922 80.6032 31.4238V35.8061Z" fill="url(#paint10_linear_2884_409)"/>
<path fill-rule="evenodd" clip-rule="evenodd" d="M84.31 34.329C84.3122 34.1606 84.2788 33.9937 84.2121 33.8392C84.1484 33.6906 84.0565 33.5557 83.9414 33.4422C83.8258 33.3285 83.6904 33.2367 83.5418 33.1715C83.3869 33.106 83.2203 33.0727 83.0521 33.0736C82.8864 33.0729 82.7223 33.1063 82.57 33.1715C82.4212 33.2348 82.2863 33.3268 82.173 33.4422C82.0633 33.5575 81.9759 33.6921 81.9152 33.8392C81.8485 33.9937 81.8151 34.1606 81.8173 34.329C81.8156 34.4972 81.849 34.664 81.9152 34.8188C81.9759 34.9666 82.0633 35.1021 82.173 35.2183C82.2867 35.33 82.4217 35.4177 82.57 35.4761C82.7217 35.5434 82.8861 35.5777 83.0521 35.5766C83.2206 35.5779 83.3875 35.5437 83.5418 35.4761C83.6899 35.4157 83.8254 35.3283 83.9414 35.2183C84.0566 35.1038 84.1485 34.9682 84.2121 34.8188L84.31 34.329ZM84.7431 34.329C84.7433 34.5498 84.6995 34.7684 84.614 34.9721C84.5286 35.1757 84.4033 35.3602 84.2456 35.5148C84.0932 35.6696 83.9119 35.7931 83.712 35.8782C83.5046 35.9682 83.2807 36.0139 83.0546 36.0123C82.9036 36.0133 82.7532 35.9916 82.6087 35.9478C82.4681 35.9104 82.3335 35.8531 82.2091 35.7777C82.0839 35.7074 81.9686 35.6207 81.8663 35.5199C81.765 35.419 81.6783 35.3044 81.6085 35.1796C81.5358 35.0541 81.4795 34.9199 81.4409 34.7801C81.3988 34.6351 81.3771 34.485 81.3765 34.3341C81.3758 34.109 81.4214 33.8861 81.5105 33.6794C81.5949 33.4789 81.7175 33.2968 81.8714 33.1432C82.0253 32.9907 82.2062 32.8683 82.405 32.7823C82.6117 32.6963 82.8334 32.6525 83.0572 32.6534C83.2991 32.6505 83.5387 32.7016 83.7584 32.8029C83.9702 32.8987 84.1597 33.0374 84.3152 33.2102V31.4238C84.3124 31.3919 84.3173 31.3599 84.3294 31.3303C84.3415 31.3007 84.3605 31.2744 84.3848 31.2536C84.4247 31.2162 84.4771 31.1951 84.5317 31.1943C84.5863 31.1953 84.6387 31.2164 84.6787 31.2536C84.7029 31.2744 84.7219 31.3007 84.734 31.3303C84.7461 31.3599 84.751 31.3919 84.7483 31.4238L84.7431 34.329Z" fill="url(#paint11_linear_2884_409)"/>
<path fill-rule="evenodd" clip-rule="evenodd" d="M86.0576 35.806C86.0609 35.8384 86.0566 35.8711 86.0449 35.9016C86.0333 35.932 86.0147 35.9593 85.9906 35.9813C85.9498 36.0169 85.8978 36.037 85.8437 36.038C85.7888 36.0367 85.736 36.0167 85.6941 35.9813C85.6705 35.959 85.6523 35.9316 85.6407 35.9013C85.6291 35.8709 85.6244 35.8384 85.6271 35.806V32.8595C85.6248 32.8276 85.6296 32.7955 85.6412 32.7657C85.6528 32.7358 85.6709 32.7089 85.6941 32.6868C85.7352 32.6497 85.7883 32.6286 85.8437 32.6275C85.8983 32.6283 85.9507 32.6494 85.9906 32.6868C86.0143 32.7085 86.0327 32.7354 86.0443 32.7653C86.0559 32.7953 86.0605 32.8275 86.0576 32.8595V35.806ZM86.1736 31.8722C86.1728 31.9139 86.164 31.955 86.1478 31.9934C86.1314 32.0333 86.1068 32.0693 86.0757 32.0991C86.0469 32.1297 86.0117 32.1535 85.9726 32.1687C85.9312 32.1872 85.8864 32.1969 85.8411 32.197C85.7974 32.1968 85.7543 32.1872 85.7148 32.1687C85.6743 32.1546 85.638 32.1307 85.6091 32.0991C85.5795 32.0685 85.5559 32.0326 85.5395 31.9934C85.5221 31.9554 85.5133 31.914 85.5137 31.8722C85.513 31.8279 85.5218 31.784 85.5395 31.7433C85.5565 31.7036 85.58 31.6671 85.6091 31.6351C85.6394 31.6039 85.6753 31.5786 85.7148 31.5603C85.755 31.5447 85.7979 31.5368 85.8411 31.5371C85.886 31.5368 85.9305 31.5447 85.9726 31.5603C86.0109 31.5792 86.0458 31.6045 86.0757 31.6351C86.1064 31.6663 86.1309 31.703 86.1478 31.7433L86.1736 31.8722Z" fill="url(#paint12_linear_2884_409)"/>
<path fill-rule="evenodd" clip-rule="evenodd" d="M89.8809 35.8057C89.8842 35.8381 89.8798 35.8709 89.8682 35.9013C89.8566 35.9317 89.838 35.959 89.8139 35.981C89.7732 36.0176 89.7204 36.0378 89.6657 36.0378C89.6109 36.0378 89.5581 36.0176 89.5174 35.981C89.4934 35.959 89.4748 35.9317 89.4631 35.9013C89.4515 35.8709 89.4471 35.8381 89.4504 35.8057V34.1275C89.4515 33.9908 89.4255 33.8552 89.3737 33.7286C89.3219 33.602 89.2455 33.487 89.1488 33.3903C89.0541 33.2964 88.9432 33.2204 88.8214 33.166C88.6933 33.1124 88.5556 33.0852 88.4167 33.0861C88.2778 33.0847 88.14 33.1119 88.012 33.166C87.8887 33.2191 87.7768 33.2952 87.682 33.3903C87.5862 33.4843 87.5099 33.5965 87.4578 33.7202C87.4021 33.8487 87.374 33.9875 87.3753 34.1275V35.8057C87.3782 35.8383 87.3735 35.8712 87.3614 35.9017C87.3493 35.9321 87.3302 35.9593 87.3057 35.981C87.2638 36.0164 87.211 36.0365 87.1562 36.0377C87.1029 36.0363 87.0518 36.0163 87.0118 35.981C86.9863 35.9598 86.9663 35.9328 86.9533 35.9024C86.9403 35.8719 86.9347 35.8388 86.937 35.8057V34.1275C86.9401 33.7402 87.0957 33.3698 87.3701 33.0964C87.5055 32.9638 87.6635 32.8564 87.8367 32.7793C88.2024 32.6282 88.613 32.6282 88.9787 32.7793C89.1519 32.8564 89.3099 32.9638 89.4453 33.0964C89.5784 33.2304 89.6859 33.3877 89.7623 33.5604C89.8377 33.7418 89.8762 33.9363 89.8758 34.1327L89.8809 35.8057Z" fill="url(#paint13_linear_2884_409)"/>
<path fill-rule="evenodd" clip-rule="evenodd" d="M93.5874 34.329C93.5896 34.1606 93.5562 33.9937 93.4895 33.8392C93.4249 33.6911 93.3331 33.5564 93.2188 33.4422C93.1032 33.3285 92.9678 33.2367 92.8193 33.1715C92.6643 33.106 92.4977 33.0727 92.3295 33.0736C92.1638 33.0729 91.9997 33.1063 91.8474 33.1715C91.6986 33.2348 91.5637 33.3268 91.4504 33.4422C91.3361 33.5564 91.2443 33.6911 91.1798 33.8392C91.113 33.9937 91.0796 34.1606 91.0818 34.329C91.0802 34.4973 91.1135 34.6641 91.1798 34.8188C91.2443 34.9677 91.3361 35.1032 91.4504 35.2183C91.5641 35.3301 91.6991 35.4177 91.8474 35.4761C91.9992 35.5434 92.1635 35.5777 92.3295 35.5766C92.498 35.5779 92.6649 35.5437 92.8193 35.4761C92.9673 35.4157 93.1028 35.3283 93.2188 35.2183C93.3332 35.1032 93.425 34.9677 93.4895 34.8188L93.5874 34.329ZM94.0205 35.7442C94.0216 35.9738 93.975 36.2011 93.8839 36.4119C93.7962 36.6153 93.6702 36.8 93.5127 36.9558C93.3551 37.1141 93.1687 37.241 92.9636 37.3296C92.7519 37.4205 92.5238 37.467 92.2934 37.4662C92.0733 37.4657 91.8554 37.4228 91.6515 37.3399C91.551 37.2988 91.4543 37.2488 91.3628 37.1904C91.271 37.1331 91.1847 37.0675 91.105 36.9944C91.0813 36.9728 91.0622 36.9466 91.0489 36.9173C91.0356 36.8881 91.0284 36.8564 91.0277 36.8243C91.0266 36.7972 91.0311 36.7702 91.0408 36.745C91.0506 36.7197 91.0654 36.6967 91.0844 36.6774C91.1037 36.6573 91.1269 36.6414 91.1526 36.6307C91.1784 36.6201 91.2061 36.6149 91.2339 36.6155C91.2612 36.6161 91.2882 36.6214 91.3138 36.631C91.3445 36.6439 91.3732 36.6613 91.3989 36.6825C91.5163 36.7971 91.6569 36.885 91.8113 36.9403C91.8859 36.9693 91.9626 36.9925 92.0408 37.0099C92.126 37.024 92.2122 37.0309 92.2985 37.0305C92.4758 37.0338 92.6517 36.9986 92.8141 36.9274C92.9683 36.861 93.1083 36.7656 93.2265 36.6464C93.3445 36.5281 93.4397 36.3892 93.5075 36.2366C93.5744 36.0774 93.6086 35.9065 93.6081 35.7339V35.4452C93.4503 35.6159 93.2602 35.7535 93.0487 35.8499C92.83 35.9517 92.5913 36.0036 92.3501 36.002C92.199 36.0032 92.0487 35.9815 91.9041 35.9375C91.7627 35.9001 91.6273 35.8428 91.502 35.7674C91.378 35.6964 91.2636 35.6098 91.1617 35.5096C91.0605 35.4087 90.9737 35.2941 90.9039 35.1693C90.8313 35.0438 90.775 34.9096 90.7364 34.7698C90.693 34.6251 90.6713 34.4748 90.6719 34.3238C90.67 34.0986 90.7157 33.8755 90.806 33.6691C90.8904 33.4686 91.013 33.2865 91.1669 33.1329C91.3207 32.9804 91.5017 32.858 91.7005 32.772C91.9071 32.6858 92.1288 32.642 92.3527 32.6431C92.5041 32.6431 92.6549 32.663 92.8012 32.7024C92.9433 32.7425 93.0801 32.7996 93.2085 32.8725C93.3326 32.9434 93.4469 33.0301 93.5488 33.1303C93.6481 33.233 93.7346 33.3472 93.8066 33.4706C93.9614 33.727 94.0409 34.0218 94.036 34.3212L94.0205 35.7442Z" fill="url(#paint14_linear_2884_409)"/>
<path fill-rule="evenodd" clip-rule="evenodd" d="M101.63 35.8061C101.634 35.8385 101.629 35.8712 101.618 35.9017C101.606 35.9321 101.588 35.9594 101.563 35.9813C101.522 36.0166 101.471 36.0366 101.417 36.0381C101.362 36.0368 101.309 36.0168 101.267 35.9813C101.243 35.959 101.225 35.9317 101.214 35.9013C101.202 35.871 101.197 35.8384 101.2 35.8061V34.1279C101.201 33.9911 101.175 33.8555 101.123 33.729C101.071 33.6024 100.995 33.4874 100.898 33.3906C100.804 33.2967 100.693 33.2207 100.571 33.1664C100.443 33.1127 100.305 33.0856 100.166 33.0865C100.028 33.085 99.8912 33.1122 99.7641 33.1664C99.6397 33.2186 99.5267 33.2948 99.4316 33.3906C99.3357 33.4847 99.2595 33.5968 99.2073 33.7206C99.1516 33.8491 99.1235 33.9878 99.1248 34.1279V35.8061C99.1278 35.8387 99.1231 35.8716 99.111 35.902C99.0989 35.9325 99.0798 35.9596 99.0552 35.9813C99.0141 36.0163 98.9623 36.0362 98.9083 36.0381C98.8542 36.0371 98.8021 36.017 98.7614 35.9813C98.7368 35.9596 98.7177 35.9325 98.7057 35.902C98.6936 35.8716 98.6888 35.8387 98.6918 35.8061V31.4238C98.689 31.3919 98.6939 31.3599 98.706 31.3303C98.7181 31.3007 98.7371 31.2744 98.7614 31.2536C98.8012 31.2162 98.8537 31.1951 98.9083 31.1943C98.9628 31.1958 99.015 31.2168 99.0552 31.2536C99.0795 31.2744 99.0985 31.3007 99.1106 31.3303C99.1227 31.3599 99.1276 31.3919 99.1248 31.4238V33.0736C99.2603 32.935 99.4226 32.8253 99.6017 32.7513C99.9663 32.6036 100.374 32.6036 100.739 32.7513C101.083 32.9043 101.359 33.1799 101.512 33.5247C101.588 33.7057 101.627 33.9004 101.625 34.097L101.63 35.8061Z" fill="url(#paint15_linear_2884_409)"/>
<path fill-rule="evenodd" clip-rule="evenodd" d="M105.791 34.3573C105.791 34.3841 105.784 34.4105 105.773 34.4347C105.76 34.4602 105.744 34.4837 105.724 34.5043C105.703 34.5229 105.68 34.5385 105.654 34.5507C105.63 34.5638 105.602 34.5709 105.574 34.5713H102.86C102.89 34.718 102.945 34.8584 103.022 34.9863C103.097 35.1126 103.194 35.2244 103.309 35.3163C103.42 35.409 103.546 35.4822 103.682 35.5328C103.906 35.6174 104.15 35.6353 104.383 35.5844C104.467 35.5676 104.549 35.5426 104.628 35.5096C104.79 35.4418 104.936 35.3408 105.056 35.2132C105.078 35.1865 105.105 35.1646 105.136 35.1487C105.164 35.1407 105.192 35.1363 105.221 35.1358C105.278 35.1347 105.332 35.156 105.373 35.1951C105.393 35.2146 105.409 35.2379 105.42 35.2635C105.43 35.2892 105.436 35.3168 105.435 35.3446C105.432 35.4062 105.408 35.4647 105.366 35.5096C105.288 35.5934 105.202 35.6686 105.108 35.7339C105.011 35.8005 104.909 35.8575 104.801 35.904C104.698 35.9506 104.59 35.9844 104.479 36.0045C104.363 36.0275 104.244 36.0388 104.126 36.0381C103.972 36.0389 103.819 36.0172 103.672 35.9736C103.531 35.9326 103.395 35.8746 103.267 35.8009C103.14 35.7319 103.022 35.6451 102.919 35.5431C102.818 35.4402 102.731 35.324 102.661 35.1977C102.587 35.0706 102.529 34.9346 102.489 34.793C102.446 34.6454 102.425 34.4928 102.424 34.3393C102.425 33.8871 102.603 33.4532 102.919 33.1303C103.072 32.9737 103.254 32.8485 103.455 32.7617C103.664 32.6703 103.89 32.6237 104.118 32.625C104.345 32.6239 104.569 32.6695 104.778 32.7591C104.976 32.8476 105.157 32.9727 105.309 33.1277C105.466 33.2831 105.59 33.4679 105.675 33.6716C105.762 33.8725 105.807 34.0893 105.806 34.3083V34.3676L105.791 34.3573ZM105.348 34.1459C105.313 33.8698 105.189 33.6125 104.994 33.4138C104.877 33.3006 104.741 33.2089 104.592 33.1432C104.437 33.078 104.271 33.0456 104.102 33.0478C103.948 33.0472 103.795 33.0752 103.651 33.1303C103.513 33.184 103.384 33.2617 103.272 33.3597C103.161 33.4584 103.067 33.5762 102.997 33.7077C102.922 33.8436 102.874 33.9922 102.855 34.1459H105.348Z" fill="url(#paint16_linear_2884_409)"/>
<path fill-rule="evenodd" clip-rule="evenodd" d="M113.414 34.5581C113.416 34.7538 113.377 34.9479 113.3 35.1278C113.223 35.301 113.116 35.459 112.983 35.5944C112.849 35.7269 112.69 35.8327 112.517 35.9063C112.337 35.986 112.143 36.0264 111.947 36.0249C111.751 36.027 111.556 35.9865 111.377 35.9063C111.202 35.8334 111.043 35.7275 110.908 35.5944C110.774 35.461 110.667 35.3024 110.593 35.1278C110.513 34.9486 110.473 34.7543 110.475 34.5581V32.8748C110.472 32.843 110.477 32.8109 110.489 32.7813C110.501 32.7517 110.52 32.7255 110.544 32.7047C110.584 32.6678 110.637 32.6475 110.691 32.648C110.746 32.6485 110.798 32.6686 110.838 32.7047C110.863 32.7255 110.882 32.7517 110.894 32.7813C110.906 32.8109 110.911 32.843 110.908 32.8748V34.5581C110.907 34.6962 110.934 34.8331 110.988 34.9603C111.041 35.0845 111.117 35.1974 111.212 35.2928C111.306 35.3879 111.418 35.4633 111.542 35.5145C111.67 35.5706 111.807 35.5996 111.947 35.5996C112.086 35.5996 112.224 35.5706 112.352 35.5145C112.474 35.462 112.585 35.3867 112.679 35.2928C112.773 35.196 112.849 35.0834 112.903 34.9603C112.957 34.8331 112.984 34.6962 112.983 34.5581V32.8748C112.981 32.8432 112.985 32.8115 112.997 32.782C113.009 32.7525 113.027 32.7261 113.05 32.7047C113.091 32.6682 113.145 32.6481 113.2 32.648C113.254 32.648 113.306 32.6682 113.347 32.7047C113.37 32.7257 113.389 32.7521 113.401 32.7817C113.412 32.8113 113.417 32.8432 113.414 32.8748V34.5581Z" fill="url(#paint17_linear_2884_409)"/>
<path fill-rule="evenodd" clip-rule="evenodd" d="M115.894 32.857C115.893 32.9108 115.874 32.9626 115.839 33.004C115.818 33.0278 115.792 33.0464 115.762 33.0585C115.733 33.0706 115.701 33.0757 115.669 33.0736H114.615V34.5584C114.615 34.8285 114.722 35.0877 114.911 35.2802C115.007 35.3734 115.119 35.4485 115.241 35.5019C115.368 35.5591 115.505 35.5881 115.644 35.5869C115.675 35.584 115.707 35.5882 115.736 35.5994C115.766 35.6106 115.792 35.6283 115.814 35.6514C115.85 35.6912 115.87 35.7432 115.87 35.797C115.87 35.8509 115.85 35.9028 115.814 35.9427C115.793 35.967 115.767 35.986 115.737 35.9981C115.707 36.0102 115.675 36.015 115.644 36.0123C115.448 36.0135 115.254 35.9749 115.074 35.8989C114.902 35.8251 114.747 35.7193 114.615 35.5869C114.481 35.4534 114.374 35.296 114.298 35.1229C114.22 34.945 114.18 34.7526 114.182 34.5584V31.4238C114.179 31.3919 114.184 31.3599 114.196 31.3303C114.208 31.3007 114.227 31.2744 114.252 31.2536C114.291 31.2162 114.344 31.1951 114.398 31.1943C114.453 31.1958 114.505 31.2168 114.545 31.2536C114.57 31.2744 114.589 31.3007 114.601 31.3303C114.613 31.3599 114.618 31.3919 114.615 31.4238V32.6431H115.669C115.7 32.6408 115.732 32.6452 115.761 32.6558C115.79 32.6665 115.817 32.6832 115.839 32.7049L115.894 32.857Z" fill="url(#paint18_linear_2884_409)"/>
<path fill-rule="evenodd" clip-rule="evenodd" d="M119.606 34.5581C119.607 34.754 119.568 34.9481 119.49 35.1278C119.34 35.4749 119.064 35.7516 118.717 35.9012C118.536 35.9806 118.341 36.021 118.144 36.0197C117.948 36.0213 117.754 35.9808 117.575 35.9012C117.226 35.7543 116.948 35.4767 116.801 35.1278C116.723 34.9481 116.684 34.754 116.685 34.5581V32.8748C116.683 32.8432 116.687 32.8115 116.699 32.782C116.711 32.7525 116.729 32.7261 116.752 32.7047C116.792 32.6678 116.845 32.6475 116.899 32.648C116.953 32.648 117.006 32.6682 117.046 32.7047C117.07 32.7255 117.089 32.7517 117.101 32.7813C117.114 32.8109 117.118 32.843 117.116 32.8748V34.5581C117.115 34.6962 117.142 34.8331 117.196 34.9603C117.248 35.0845 117.324 35.1974 117.42 35.2928C117.515 35.3885 117.628 35.464 117.752 35.5145C117.88 35.5705 118.017 35.5995 118.156 35.5995C118.295 35.5995 118.432 35.5705 118.559 35.5145C118.682 35.4624 118.793 35.3871 118.887 35.2928C118.981 35.1967 119.057 35.084 119.111 34.9603C119.165 34.8331 119.192 34.6962 119.191 34.5581V32.8748C119.188 32.843 119.193 32.8109 119.205 32.7813C119.217 32.7517 119.236 32.7255 119.26 32.7047C119.301 32.6683 119.353 32.6481 119.407 32.6481C119.462 32.6481 119.514 32.6683 119.554 32.7047C119.579 32.7255 119.598 32.7517 119.61 32.7813C119.622 32.8109 119.627 32.843 119.624 32.8748L119.606 34.5581Z" fill="url(#paint19_linear_2884_409)"/>
<path fill-rule="evenodd" clip-rule="evenodd" d="M122.073 32.857C122.072 32.9112 122.052 32.9634 122.016 33.0039C121.995 33.0282 121.969 33.0472 121.939 33.0593C121.91 33.0714 121.878 33.0763 121.846 33.0735C121.707 33.072 121.57 33.1001 121.444 33.156C121.319 33.2112 121.206 33.288 121.108 33.3829C121.01 33.4774 120.932 33.5913 120.88 33.7172C120.828 33.8432 120.802 33.9786 120.804 34.115V35.806C120.807 35.8386 120.802 35.8715 120.79 35.902C120.778 35.9324 120.759 35.9596 120.735 35.9813C120.694 36.0177 120.642 36.0379 120.588 36.0379C120.533 36.0379 120.481 36.0177 120.441 35.9813C120.417 35.959 120.399 35.9316 120.387 35.9013C120.376 35.8709 120.371 35.8384 120.374 35.806V34.1278C120.371 33.9313 120.41 33.7363 120.487 33.5556C120.642 33.2076 120.923 32.9313 121.273 32.7822C121.455 32.7061 121.649 32.6676 121.846 32.6688C121.877 32.666 121.908 32.6702 121.938 32.6808C121.967 32.6915 121.994 32.7085 122.016 32.7307L122.073 32.857Z" fill="url(#paint20_linear_2884_409)"/>
<path fill-rule="evenodd" clip-rule="evenodd" d="M125.749 34.3571C125.748 34.3839 125.742 34.4102 125.731 34.4344C125.718 34.4607 125.701 34.4843 125.679 34.504C125.659 34.5227 125.637 34.5383 125.612 34.5504C125.586 34.5633 125.558 34.5703 125.53 34.5711H122.815C122.846 34.7179 122.901 34.8584 122.98 34.9861C123.054 35.113 123.151 35.2249 123.266 35.3161C123.414 35.4382 123.588 35.5249 123.774 35.5696C123.96 35.6143 124.154 35.6157 124.341 35.5738C124.425 35.5568 124.507 35.5317 124.586 35.4991C124.747 35.4304 124.893 35.3295 125.014 35.2026C125.036 35.1754 125.063 35.1534 125.094 35.1382C125.121 35.1301 125.149 35.1258 125.176 35.1253C125.204 35.1242 125.232 35.1289 125.258 35.1389C125.284 35.149 125.308 35.1642 125.328 35.1838C125.348 35.2033 125.364 35.2267 125.375 35.2526C125.385 35.2784 125.391 35.3061 125.39 35.3341C125.388 35.3953 125.365 35.4538 125.323 35.4991C125.246 35.5829 125.159 35.6581 125.066 35.7233C124.969 35.7895 124.866 35.8464 124.759 35.8935C124.656 35.9397 124.548 35.9735 124.437 35.994C124.32 36.017 124.202 36.0282 124.083 36.0275C123.93 36.0287 123.777 36.007 123.63 35.9631C123.488 35.9221 123.353 35.8641 123.225 35.7904C123.097 35.7214 122.98 35.6346 122.877 35.5326C122.776 35.4296 122.689 35.3134 122.619 35.1872C122.545 35.06 122.487 34.9241 122.447 34.7824C122.344 34.412 122.37 34.0179 122.519 33.6637C122.602 33.4609 122.724 33.2762 122.877 33.1197C123.031 32.9638 123.213 32.8386 123.413 32.7511C123.623 32.6618 123.848 32.6157 124.076 32.6157C124.303 32.6157 124.529 32.6618 124.738 32.7511C124.937 32.8397 125.117 32.9647 125.269 33.1197C125.424 33.2765 125.548 33.461 125.635 33.6637C125.723 33.8645 125.768 34.0813 125.767 34.3004V34.3597L125.749 34.3571ZM125.305 34.1457C125.269 33.8697 125.144 33.6128 124.95 33.4136C124.834 33.3004 124.698 33.2088 124.55 33.1429C124.395 33.0782 124.228 33.0458 124.06 33.0476C123.905 33.0476 123.752 33.0755 123.607 33.1301C123.469 33.1844 123.342 33.262 123.23 33.3595C123.118 33.4575 123.024 33.5755 122.954 33.7075C122.88 33.8437 122.831 33.9922 122.81 34.1457H125.305Z" fill="url(#paint21_linear_2884_409)"/>
<defs>
<linearGradient id="paint0_linear_2884_409" x1="0" y1="19.9987" x2="40" y2="19.9987" gradientUnits="userSpaceOnUse">
<stop stop-color="#00B1EB"/>
<stop offset="1" stop-color="#5A328A"/>
</linearGradient>
<linearGradient id="paint1_linear_2884_409" x1="34.9887" y1="21.3932" x2="25.6003" y2="19.8259" gradientUnits="userSpaceOnUse">
<stop stop-color="white"/>
<stop offset="1" stop-color="#B2B2B2"/>
</linearGradient>
<linearGradient id="paint2_linear_2884_409" x1="27.7064" y1="16.5548" x2="18.3772" y2="20.9938" gradientUnits="userSpaceOnUse">
<stop stop-color="white"/>
<stop offset="1" stop-color="#C6C6C6"/>
</linearGradient>
<linearGradient id="paint3_linear_2884_409" x1="19.6144" y1="20.6948" x2="7.83123" y2="20.785" gradientUnits="userSpaceOnUse">
<stop stop-color="white"/>
<stop offset="0.45" stop-color="#E8E8E8"/>
<stop offset="1" stop-color="#C6C6C6"/>
</linearGradient>
<linearGradient id="paint4_linear_2884_409" x1="117.394" y1="17.4623" x2="108.485" y2="18.6274" gradientUnits="userSpaceOnUse">
<stop stop-color="#00B1EB"/>
<stop offset="1" stop-color="#5A328A"/>
</linearGradient>
<linearGradient id="paint5_linear_2884_409" x1="73.6044" y1="41.9928" x2="72.385" y2="32.9189" gradientUnits="userSpaceOnUse">
<stop stop-color="#554596"/>
<stop offset="0.06" stop-color="#4E4C9C"/>
<stop offset="0.48" stop-color="#2477C1"/>
<stop offset="0.81" stop-color="#0A92D8"/>
<stop offset="1" stop-color="#009CE1"/>
</linearGradient>
<linearGradient id="paint6_linear_2884_409" x1="97.8026" y1="39.1727" x2="96.5395" y2="29.7765" gradientUnits="userSpaceOnUse">
<stop stop-color="#554596"/>
<stop offset="0.06" stop-color="#4E4C9C"/>
<stop offset="0.48" stop-color="#2477C1"/>
<stop offset="0.81" stop-color="#0A92D8"/>
<stop offset="1" stop-color="#009CE1"/>
</linearGradient>
<linearGradient id="paint7_linear_2884_409" x1="109.341" y1="37.3679" x2="108.16" y2="28.5827" gradientUnits="userSpaceOnUse">
<stop stop-color="#554596"/>
<stop offset="0.06" stop-color="#4E4C9C"/>
<stop offset="0.48" stop-color="#2477C1"/>
<stop offset="0.81" stop-color="#0A92D8"/>
<stop offset="1" stop-color="#009CE1"/>
</linearGradient>
<linearGradient id="paint8_linear_2884_409" x1="77.5406" y1="41.4512" x2="76.3342" y2="32.4778" gradientUnits="userSpaceOnUse">
<stop stop-color="#554596"/>
<stop offset="0.06" stop-color="#4E4C9C"/>
<stop offset="0.48" stop-color="#2477C1"/>
<stop offset="0.81" stop-color="#0A92D8"/>
<stop offset="1" stop-color="#009CE1"/>
</linearGradient>
<linearGradient id="paint9_linear_2884_409" x1="80.1548" y1="41.4669" x2="78.902" y2="32.1352" gradientUnits="userSpaceOnUse">
<stop stop-color="#554596"/>
<stop offset="0.06" stop-color="#4E4C9C"/>
<stop offset="0.48" stop-color="#2477C1"/>
<stop offset="0.81" stop-color="#0A92D8"/>
<stop offset="1" stop-color="#009CE1"/>
</linearGradient>
<linearGradient id="paint10_linear_2884_409" x1="81.4281" y1="41.3535" x2="80.165" y2="31.9548" gradientUnits="userSpaceOnUse">
<stop stop-color="#554596"/>
<stop offset="0.06" stop-color="#4E4C9C"/>
<stop offset="0.48" stop-color="#2477C1"/>
<stop offset="0.81" stop-color="#0A92D8"/>
<stop offset="1" stop-color="#009CE1"/>
</linearGradient>
<linearGradient id="paint11_linear_2884_409" x1="84.0471" y1="40.2786" x2="82.9232" y2="31.9187" gradientUnits="userSpaceOnUse">
<stop stop-color="#554596"/>
<stop offset="0.06" stop-color="#4E4C9C"/>
<stop offset="0.48" stop-color="#2477C1"/>
<stop offset="0.81" stop-color="#0A92D8"/>
<stop offset="1" stop-color="#009CE1"/>
</linearGradient>
<linearGradient id="paint12_linear_2884_409" x1="86.8078" y1="40.5904" x2="85.5524" y2="31.2587" gradientUnits="userSpaceOnUse">
<stop stop-color="#554596"/>
<stop offset="0.06" stop-color="#4E4C9C"/>
<stop offset="0.48" stop-color="#2477C1"/>
<stop offset="0.81" stop-color="#0A92D8"/>
<stop offset="1" stop-color="#009CE1"/>
</linearGradient>
<linearGradient id="paint13_linear_2884_409" x1="89.1153" y1="40.1416" x2="87.9089" y2="31.1682" gradientUnits="userSpaceOnUse">
<stop stop-color="#554596"/>
<stop offset="0.06" stop-color="#4E4C9C"/>
<stop offset="0.48" stop-color="#2477C1"/>
<stop offset="0.81" stop-color="#0A92D8"/>
<stop offset="1" stop-color="#009CE1"/>
</linearGradient>
<linearGradient id="paint14_linear_2884_409" x1="93.0281" y1="39.482" x2="91.8552" y2="30.7458" gradientUnits="userSpaceOnUse">
<stop stop-color="#554596"/>
<stop offset="0.06" stop-color="#4E4C9C"/>
<stop offset="0.48" stop-color="#2477C1"/>
<stop offset="0.81" stop-color="#0A92D8"/>
<stop offset="1" stop-color="#009CE1"/>
</linearGradient>
<linearGradient id="paint15_linear_2884_409" x1="100.695" y1="38.7963" x2="99.429" y2="29.3899" gradientUnits="userSpaceOnUse">
<stop stop-color="#554596"/>
<stop offset="0.06" stop-color="#4E4C9C"/>
<stop offset="0.48" stop-color="#2477C1"/>
<stop offset="0.81" stop-color="#0A92D8"/>
<stop offset="1" stop-color="#009CE1"/>
</linearGradient>
<linearGradient id="paint16_linear_2884_409" x1="104.582" y1="37.8941" x2="103.443" y2="29.4131" gradientUnits="userSpaceOnUse">
<stop stop-color="#554596"/>
<stop offset="0.06" stop-color="#4E4C9C"/>
<stop offset="0.48" stop-color="#2477C1"/>
<stop offset="0.81" stop-color="#0A92D8"/>
<stop offset="1" stop-color="#009CE1"/>
</linearGradient>
<linearGradient id="paint17_linear_2884_409" x1="112.385" y1="37.0328" x2="111.179" y2="28.0594" gradientUnits="userSpaceOnUse">
<stop stop-color="#554596"/>
<stop offset="0.06" stop-color="#4E4C9C"/>
<stop offset="0.48" stop-color="#2477C1"/>
<stop offset="0.81" stop-color="#0A92D8"/>
<stop offset="1" stop-color="#009CE1"/>
</linearGradient>
<linearGradient id="paint18_linear_2884_409" x1="115.453" y1="36.8294" x2="114.19" y2="27.4333" gradientUnits="userSpaceOnUse">
<stop stop-color="#554596"/>
<stop offset="0.06" stop-color="#4E4C9C"/>
<stop offset="0.48" stop-color="#2477C1"/>
<stop offset="0.81" stop-color="#0A92D8"/>
<stop offset="1" stop-color="#009CE1"/>
</linearGradient>
<linearGradient id="paint19_linear_2884_409" x1="118.472" y1="36.2621" x2="117.265" y2="27.2887" gradientUnits="userSpaceOnUse">
<stop stop-color="#554596"/>
<stop offset="0.06" stop-color="#4E4C9C"/>
<stop offset="0.48" stop-color="#2477C1"/>
<stop offset="0.81" stop-color="#0A92D8"/>
<stop offset="1" stop-color="#009CE1"/>
</linearGradient>
<linearGradient id="paint20_linear_2884_409" x1="121.428" y1="35.873" x2="120.286" y2="27.374" gradientUnits="userSpaceOnUse">
<stop stop-color="#554596"/>
<stop offset="0.06" stop-color="#4E4C9C"/>
<stop offset="0.48" stop-color="#2477C1"/>
<stop offset="0.81" stop-color="#0A92D8"/>
<stop offset="1" stop-color="#009CE1"/>
</linearGradient>
<linearGradient id="paint21_linear_2884_409" x1="124.223" y1="35.5429" x2="123.083" y2="27.0645" gradientUnits="userSpaceOnUse">
<stop stop-color="#554596"/>
<stop offset="0.06" stop-color="#4E4C9C"/>
<stop offset="0.48" stop-color="#2477C1"/>
<stop offset="0.81" stop-color="#0A92D8"/>
<stop offset="1" stop-color="#009CE1"/>
</linearGradient>
</defs>
</svg>
