<svg width="1162" height="378" viewBox="0 0 1162 378" fill="none" xmlns="http://www.w3.org/2000/svg">
<path d="M360.65 278.56C355.24 275.42 350.96 271.14 347.82 265.73C344.68 260.32 343.11 254.38 343.11 247.92V130.07C343.11 123.61 344.68 117.68 347.82 112.26C350.96 106.85 355.24 102.57 360.65 99.43C366.06 96.29 372 94.72 378.46 94.72H496.31C501.89 94.72 507.09 96.07 511.89 98.78C516.69 101.49 520.84 105.02 524.33 109.38C527.82 113.75 530.26 118.55 531.66 123.78L531.92 153.9H500.23V126.4H383.96C381.34 126.4 379.12 127.28 377.28 129.02C375.45 130.77 374.53 132.95 374.53 135.57V242.42C374.53 245.04 375.45 247.22 377.28 248.97C379.12 250.72 381.34 251.59 383.96 251.59H500.23V224.09H531.13V253.94C530.08 259.18 527.81 264.02 524.32 268.47C520.83 272.92 516.68 276.5 511.88 279.21C507.08 281.92 501.88 283.27 496.3 283.27H378.45C371.99 283.27 366.05 281.7 360.64 278.56H360.65Z" fill="#F1BE40"/>
<path d="M559.94 283.28V94.73H733.04V126.42H591.62V173.3H705.54V204.73H591.62V251.61H733.04V283.3H559.94V283.28Z" fill="#F1BE40"/>
<path d="M794.84 283.28C788.38 283.28 782.44 281.71 777.03 278.57C771.62 275.43 767.34 271.15 764.2 265.74C761.06 260.33 759.49 254.39 759.49 247.93V130.08C759.49 123.62 761.06 117.69 764.2 112.27C767.34 106.86 771.62 102.58 777.03 99.44C782.44 96.3 788.38 94.73 794.84 94.73H912.68C919.14 94.73 925.03 96.3 930.36 99.44C935.68 102.58 939.96 106.86 943.19 112.27C946.42 117.68 948.03 123.62 948.03 130.08V247.93C948.03 254.39 946.41 260.33 943.19 265.74C939.96 271.15 935.68 275.43 930.36 278.57C925.03 281.71 919.14 283.28 912.68 283.28H794.84ZM795.63 251.59H911.64C912.86 251.59 913.95 251.11 914.91 250.15C915.87 249.19 916.35 248.1 916.35 246.88V131.13C916.35 129.91 915.87 128.82 914.91 127.86C913.95 126.9 912.86 126.42 911.64 126.42H795.63C794.41 126.42 793.31 126.9 792.36 127.86C791.4 128.82 790.92 129.91 790.92 131.13V246.88C790.92 248.1 791.4 249.2 792.36 250.15C793.32 251.11 794.41 251.59 795.63 251.59ZM837.53 204.71V173.28H868.96V204.71H837.53Z" fill="#F1BE40"/>
<path d="M973.18 283.28V251.59H1125.33C1126.73 251.59 1127.86 251.11 1128.73 250.15C1129.6 249.19 1130.04 248.1 1130.04 246.88V209.43C1130.04 208.03 1129.6 206.9 1128.73 206.03C1127.86 205.16 1126.72 204.72 1125.33 204.72H1008.53C1002.07 204.72 996.13 203.15 990.72 200.01C985.31 196.87 981.03 192.64 977.88 187.31C974.74 181.99 973.17 176.09 973.17 169.63V130.09C973.17 123.63 974.74 117.7 977.88 112.28C981.02 106.87 985.3 102.59 990.72 99.45C996.13 96.31 1002.07 94.74 1008.53 94.74H1161.73V126.43H1009.58C1008.35 126.43 1007.26 126.91 1006.31 127.87C1005.35 128.83 1004.87 129.92 1004.87 131.14V168.59C1004.87 169.99 1005.35 171.12 1006.31 171.99C1007.27 172.87 1008.36 173.3 1009.58 173.3H1126.38C1132.84 173.3 1138.78 174.87 1144.19 178.01C1149.6 181.15 1153.88 185.39 1157.02 190.71C1160.16 196.04 1161.73 201.93 1161.73 208.39V247.93C1161.73 254.39 1160.16 260.33 1157.02 265.74C1153.88 271.15 1149.6 275.43 1144.19 278.57C1138.78 281.71 1132.84 283.28 1126.38 283.28H973.18Z" fill="#F1BE40"/>
<path d="M276.06 175.43C254.07 145.43 212.42 128.13 165.21 105.9C100.3 75.3601 100.66 18.5401 116.62 0.390137C120.46 11.7301 116.87 33.3601 215.68 72.2401C286.62 100.14 292 157.26 276.06 175.43Z" fill="#F1BE40"/>
<path d="M183.85 143.78C160.03 133.38 92.94 111.21 86.78 46.04C86.78 46.04 -59.11 177.94 28.03 309.16C54.1 348.45 95.51 368.6 141.24 377.62C98.16 348.78 21.29 253.98 77.38 126.13C86.42 162.74 118.47 184.5 144.19 196.42C134.06 201.38 124.93 208.79 117.7 218.41C93.12 251.24 99.82 297.78 132.66 322.38C165.49 346.96 212.06 340.28 236.63 307.47C250.27 289.26 254.29 266.8 249.49 246.24C270.49 264.23 283.35 285.46 293.04 309.65C294.11 301.5 322.86 204.45 183.87 143.78H183.85ZM233.29 239.22C223.92 251.74 206.1 254.31 193.58 244.91C183.04 237.03 179.54 223.26 184.21 211.63C180.73 213.93 177.6 216.85 174.97 220.36C162.47 237.08 165.86 260.74 182.58 273.26C196.13 283.42 214.28 283.08 227.33 273.66C208.6 297.41 174.3 301.99 149.94 283.77C125.21 265.22 120.16 230.18 138.69 205.45C140.94 202.44 143.44 199.71 146.15 197.3C164.21 205.42 178.69 208.64 178.96 208.73C202.04 216.43 220.52 225.4 235.57 235.63C234.92 236.88 234.16 238.06 233.29 239.22Z" fill="#F1BE40"/>
</svg>
