<svg width="296" height="378" viewBox="0 0 296 378" fill="none" xmlns="http://www.w3.org/2000/svg">
<path d="M275.83 175.32C253.84 145.32 212.19 128.02 164.98 105.79C100.07 75.2503 100.43 18.4303 116.39 0.280273C120.23 11.6203 116.64 33.2503 215.45 72.1303C286.39 100.03 291.77 157.15 275.83 175.32Z" fill="#F1BE40"/>
<path d="M183.62 143.67C159.8 133.27 92.71 111.1 86.55 45.9302C86.55 45.9302 -59.34 177.83 27.8 309.05C53.87 348.34 95.28 368.49 141.01 377.51C97.93 348.67 21.06 253.87 77.15 126.02C86.19 162.63 118.24 184.39 143.96 196.31C133.83 201.27 124.7 208.68 117.47 218.3C92.89 251.13 99.59 297.67 132.43 322.27C165.26 346.85 211.83 340.17 236.4 307.36C250.04 289.15 254.06 266.69 249.26 246.13C270.26 264.12 283.12 285.35 292.81 309.54C293.88 301.39 322.63 204.34 183.64 143.67H183.62ZM233.06 239.11C223.69 251.63 205.87 254.2 193.35 244.8C182.81 236.92 179.31 223.15 183.98 211.52C180.5 213.82 177.37 216.74 174.74 220.25C162.24 236.97 165.63 260.63 182.35 273.15C195.9 283.31 214.05 282.97 227.1 273.55C208.37 297.3 174.07 301.88 149.71 283.66C124.98 265.11 119.93 230.07 138.46 205.34C140.71 202.33 143.21 199.6 145.92 197.19C163.98 205.31 178.46 208.53 178.73 208.62C201.81 216.32 220.29 225.29 235.34 235.52C234.69 236.77 233.93 237.95 233.06 239.11Z" fill="#F1BE40"/>
</svg>
