<svg width="26" height="73" viewBox="0 0 26 73" fill="none" xmlns="http://www.w3.org/2000/svg">
<path d="M10.5115 65.5211C9.38543 67.0931 5.82836 67.9747 5.75831 68.8706C5.74274 69.1252 5.56372 69.9622 6.21495 70.2613C8.16085 70.7356 11.7568 68.8159 11.7568 68.8159C11.7568 68.8159 15.1272 68.7409 15.4256 68.0661C15.7291 67.3889 15.4256 65.2201 15.4256 65.2201C15.4256 65.2201 10.8072 65.0925 10.5115 65.5211Z" fill="#352018"/>
<path d="M19.3254 7.66908C19.1698 9.62822 19.751 10.5067 19.751 10.5067L19.1698 11.8741L17.2784 13.1661L15.5374 13.4702L14.5048 11.9288L15.8981 8.96843L17.3899 7.92334C17.3899 7.92334 19.3825 7.23035 19.3254 7.66908Z" fill="#C59D8D"/>
<path d="M12.5442 8.90238C12.5442 8.90238 8.73543 9.37174 8.2736 13.4317C7.81437 17.4898 6.86472 21.2334 6.86472 21.2334L5.44292 22.7204L7.20462 26.2046C7.20462 26.2046 9.59676 25.1364 10.4244 23.6183C10.9874 22.5886 13.1436 9.74768 13.1436 9.74768L12.5442 8.90238Z" fill="#E9E9EC"/>
<path d="M6.04852 26.6228C6.04852 26.6228 8.30315 27.4263 8.81428 25.4309C9.29167 23.5843 8.09044 21.8278 6.71274 21.5969C4.93807 21.2957 4.14929 23.0937 4.3335 23.8801C4.39318 24.1235 6.04852 26.6228 6.04852 26.6228Z" fill="#D8D8DE"/>
<path d="M15.5546 12.7306C16.7714 13.7298 19.9005 10.4301 19.75 10.5069C20.1988 11.0675 20.6995 11.5195 20.6995 11.5195L22.4949 13.1227C22.4949 13.1227 22.8141 13.4755 23.5146 13.8829L21.2081 29.9872L16.1461 30.8457L10.2506 29.9872L9.38397 29.4216C9.38397 29.4216 8.10823 21.5967 8.28725 17.5518C8.55708 11.5296 13.0249 9.72148 13.0249 9.72148L15.1784 10.1724C15.1784 10.1724 14.3377 11.7323 15.5546 12.7306Z" fill="#D8D8DE"/>
<path d="M12.8779 2.40218C10.5273 4.42099 11.4302 7.21012 11.4302 7.21012C11.4302 7.21012 12.0061 11.7091 12.4031 12.1369C12.7949 12.5645 13.5629 12.8068 13.8249 12.827C14.6111 12.902 17.3846 10.9014 17.779 10.4139C18.1682 9.92323 18.0021 8.98998 18.0021 8.98998C18.0021 8.98998 19.2942 8.45473 19.4265 7.24359C19.5589 6.03143 19.4265 5.33427 19.4265 5.33427L18.412 3.12579L16.2689 1.80026H14.515C14.515 1.80026 13.1711 2.18138 12.8779 2.40218Z" fill="#F1BFAD"/>
<path d="M19.4259 7.24338C19.4259 7.24338 19.1275 5.89655 18.3985 6.66168C18.0482 7.03062 18.1883 7.25168 17.9262 7.67926C17.6642 8.10995 17.0155 8.36447 16.8521 8.18805C16.6886 8.01681 16.5096 6.11735 16.7016 5.49414C16.8962 4.86989 17.9704 4.37641 17.2257 3.54616C16.4863 2.71617 13.6375 5.13142 12.6801 4.19687C12.0263 3.48337 13.6946 -1.49788 18.4503 1.42098C21.2006 3.11236 19.4259 7.24338 19.4259 7.24338Z" fill="#593217"/>
<path d="M8.56599 34.3866C8.07822 41.3807 9.85804 49.6619 10.1564 51.2085C10.8076 56.7037 9.95668 63.2832 10.0086 64.7305C10.0579 66.1787 15.0523 67.3463 15.7503 64.7984C16.1135 62.4117 16.098 55.2402 15.2028 51.7943C14.8526 50.4483 16.3496 39.5564 16.3496 39.5564C16.3496 39.5564 8.7035 32.9902 8.56599 34.3866Z" fill="#294899"/>
<path d="M20.7259 67.2707C20.7985 68.0411 18.4271 71.4534 19.0005 72.3737C19.522 73.2099 22.0309 72.8856 23.0532 72.086C24.078 71.2894 24.8694 68.711 25.1055 67.7816C25.3442 66.8554 25.1055 65.5215 25.1055 65.5215L21.1488 66.0983C21.1488 66.0983 20.6532 66.5007 20.7259 67.2707Z" fill="#352018"/>
<path d="M3.10864 25.2822C4.67574 24.0851 5.90037 22.8011 5.90037 22.8011C5.90037 22.8011 6.87327 22.2801 7.72947 23.7559C8.63756 25.3175 7.54786 25.8549 7.54786 25.8549C7.54786 25.8549 5.60195 26.6514 4.36176 27.2798C4.12306 26.4568 3.50042 25.9309 3.10864 25.2822Z" fill="#F1BFAD"/>
<path d="M4.30327 25.6377C3.92966 25.2283 2.11093 24.8726 0.912256 26.1068C0.273999 26.7666 0.369975 27.7165 0.629429 28.3822C0.894072 29.047 1.43635 30.173 2.20693 30.0251C2.86594 29.8902 2.46898 28.7278 2.46898 28.7278C2.46898 28.7278 3.47825 28.279 3.75846 27.5704C3.75846 27.5704 4.05944 27.7214 4.36041 27.3657C4.65878 27.0048 4.67948 26.0472 4.30327 25.6377Z" fill="#F1BFAD"/>
<path d="M9.35388 28.4787C9.35388 28.4787 15.1423 32.8193 17.2958 32.7109C19.9785 32.5762 21.5664 30.4246 21.5664 30.4246C21.5664 30.4246 22.9026 32.7213 23.3021 34.1462C23.7017 35.5701 23.5253 48.7921 24.2232 50.6519C24.9289 52.5148 25.274 52.8987 25.6138 54.3237C25.9459 55.7478 25.824 62.8877 25.5983 65.1631C25.3752 67.4334 21.8777 68.3596 20.5545 66.7593C20.7024 60.8404 20.526 54.9378 19.4648 52.9566C17.9807 50.1797 15.7261 39.7831 15.5808 39.3737C12.5633 37.8169 8.56556 34.9644 8.56556 34.3866C8.56556 33.815 9.35388 28.4787 9.35388 28.4787Z" fill="#3E5FB5"/>
<path d="M11.7637 30.5015C11.7637 30.5015 10.0098 29.4565 9.33522 29.342C7.53461 28.9811 7.70844 30.0576 7.70844 30.0576C7.70844 30.0576 5.07494 30.089 4.94262 30.6808C4.48079 32.7383 6.34371 33.5317 7.5839 33.6747C9.55057 33.8978 11.7637 33.1822 11.7637 33.1822V30.5015Z" fill="#F1BFAD"/>
<path d="M15.4979 29.6071C15.4979 29.6071 14.3796 30.1826 11.6684 30.5131C10.5631 31.0108 11.1001 33.219 11.8759 33.1827C12.3169 33.1746 13.5027 33.1614 16.3255 33.0599C16.5175 32.4692 15.4979 29.6071 15.4979 29.6071Z" fill="#F1BFAD"/>
<path d="M18.2323 29.0838C18.2323 29.0838 16.686 27.6933 15.2045 29.1305C14.0759 30.2279 14.5818 32.5711 15.7805 33.2846C17.729 34.4391 18.8291 32.6896 18.8291 32.6896L18.2323 29.0838Z" fill="#D8D8DE"/>
<path d="M23.419 13.8416C26.7738 15.2655 25.2196 20.865 25.2196 20.865C25.2196 20.865 23.419 31.375 22.3241 32.1251C21.2241 32.8749 17.2025 33.3808 16.8056 32.9945C16.406 32.6053 15.7262 30.4882 16.4786 29.276C16.9041 28.5858 19.8645 28.4976 19.5999 28.4906C19.151 24.9698 20.4249 19.287 20.4249 19.287C20.4249 19.287 20.7778 13.1128 23.419 13.8416Z" fill="#E9E9EC"/>
</svg>
