<svg width="31" height="72" viewBox="0 0 31 72" fill="none" xmlns="http://www.w3.org/2000/svg">
<path d="M18.1172 24.7987L12.5285 21.5789L12.1471 21.6123C11.8513 21.7805 11.6152 22.201 11.6152 22.5407L11.7683 22.8863L17.3517 26.1162L18.1172 24.7987Z" fill="#EEAF99"/>
<path d="M17.2003 25.7676C17.1951 25.4301 17.4364 25.0126 17.7348 24.8414C18.0305 24.673 18.2693 24.8079 18.2693 25.1473C18.2693 25.4929 18.0305 25.9054 17.7348 26.0787C17.4364 26.25 17.2003 26.1101 17.2003 25.7676Z" fill="#A52025"/>
<path d="M25.3018 11.6496C25.3018 11.6496 29.0145 10.1285 29.8915 12.8273C30.7633 15.5254 28.2466 21.9912 28.2466 21.9912C28.2466 21.9912 27.6472 23.317 26.9467 22.8944C26.3733 22.5436 24.9463 18.1482 24.9463 18.1482L25.3018 11.6496Z" fill="#E9E9EC"/>
<path d="M24.198 9.76569C24.2058 10.6273 24.7221 11.8079 24.7221 11.8079L24.0007 13.4032L21.702 14.6953L19.4811 14.3528L19.0738 13.6111C19.0738 13.6111 19.3203 12.031 19.0686 10.9203C18.8481 9.96858 19.2709 9.10901 19.2709 9.10901L20.0312 7.98298L22.1041 8.38332L23.6505 8.58309C23.6505 8.58309 24.1876 8.9043 24.198 9.76569Z" fill="#F1BFAD"/>
<path d="M16.6691 3.49147C16.2722 4.54745 16.4797 6.41837 16.3837 6.6262C16.1761 7.00422 16.586 10.0396 17.5486 10.7946C17.8703 11.0418 19.0691 10.9194 19.0691 10.9194L20.6751 7.89389L18.7084 4.16632C18.7084 4.16632 16.8793 3.24499 16.6691 3.49147Z" fill="#F1BFAD"/>
<path d="M24.4289 9.60947C24.4289 9.60947 22.592 10.9472 20.8977 10.5946C19.9974 10.3694 19.7172 7.92509 18.7857 7.22976C18.381 6.76248 18.1527 7.62205 17.8776 7.45782C17.7531 7.38776 17.1487 6.3663 17.0786 5.55135C16.9463 3.99151 16.666 4.33918 16.666 3.31667C16.666 2.46618 20.6253 -1.32418 24.2265 2.92231C26.4215 5.88086 24.4289 9.60947 24.4289 9.60947Z" fill="#593217"/>
<path d="M24.7218 11.8069C21.7484 13.9446 19.0735 13.6101 19.0735 13.6101C19.0735 13.6101 15.3321 16.3627 14.3514 17.6752C11.7542 21.1524 14.1983 26.9588 14.0659 27.501C13.9258 28.0433 14.1879 29.2451 14.1879 29.2451L14.9865 33.1709L21.4053 33.0534L25.2971 29.1622L27.2721 21.3289L27.9415 20.3012C27.9415 20.3012 28.4578 19.2379 28.9845 16.5754C29.4957 14.0875 28.048 10.8887 24.7218 11.8069Z" fill="#D8D8DE"/>
<path d="M2.9801 28.7701C1.69321 28.4924 0.30777 29.9975 0.102801 30.56C-0.0788163 31.0616 -0.0217441 31.7802 0.289601 32.2312C0.538676 32.5921 1.87487 33.6065 2.31076 33.5284C2.74923 33.4535 3.11239 33.2539 3.46265 32.8829C3.81032 32.5059 4.12168 30.937 4.12168 30.937C4.12168 30.937 3.2681 28.8432 2.9801 28.7701Z" fill="#F1BFAD"/>
<path d="M6.82257 27.7869C6.82257 27.7869 3.98417 28.6039 3.09165 28.7365C2.19913 28.8662 2.55461 31.3027 4.16582 31.022C5.36969 30.8121 7.67098 31.1831 7.67098 31.1831L6.82257 27.7869Z" fill="#F1BFAD"/>
<path d="M9.44404 27.068C9.44404 27.068 8.06118 26.1498 6.88066 27.3091C5.87658 28.2973 6.27881 30.5888 7.21803 31.3205C8.86297 32.5965 10.3677 30.8117 10.3677 30.8117L9.44404 27.068Z" fill="#D8D8DE"/>
<path d="M18.1582 17.0247C14.4117 15.2135 12.9639 20.8698 12.9639 20.8698L9.91802 26.7156C9.91802 26.7156 8.39236 27.0936 8.09399 27.2184C7.29228 29.3568 8.76859 31.1831 8.76859 31.1831C8.76859 31.1831 10.9662 31.0586 12.4633 30.26C13.6957 29.6002 18.5008 22.1154 18.5008 22.1154C18.5008 22.1154 20.444 18.4232 18.1582 17.0247Z" fill="#E9E9EC"/>
<path d="M28.1397 64.5132C28.1397 64.5132 28.7053 67.3101 27.166 67.2348C25.6306 67.157 24.4659 64.7104 24.4659 64.7104C24.4659 64.7104 22.0234 63.2367 22.1715 61.8174C22.1715 60.5669 24.8937 61.2414 24.8937 61.2414L28.1397 64.5132Z" fill="#352018"/>
<path d="M27.4568 35.5008C27.4568 35.5008 27.7069 41.4475 27.2905 48.2296C27.2083 49.7396 28.6892 51.5402 28.7904 53.7352C28.8441 54.9962 28.8675 58.2549 28.8148 60.8883C28.7761 62.855 28.766 64.4766 28.3416 64.6608C25.3628 65.3587 23.8213 63.7968 23.7453 62.1519C23.6652 60.5043 23.3642 54.9468 22.9447 51.6129C21.2966 47.9675 20.0977 38.6272 20.0977 38.6272L27.4568 35.5008Z" fill="#294899"/>
<path d="M20.4605 68.0335C20.4605 68.0335 21.024 70.5424 19.5625 70.8408C15.0716 71.3779 11.7545 70.558 10.8495 70.0313C10.3132 69.8886 8.75366 67.6962 10.6235 67.3953C12.5663 67.0865 15.6281 66.4587 15.6281 66.4587L20.4605 68.0335Z" fill="#352018"/>
<path d="M25.8442 28.1896C25.8442 28.1896 19.8806 31.521 17.9298 31.521C15.5065 31.8349 14.6552 30.836 14.1586 29.5673C12.1113 38.8402 14.5073 51.473 14.5073 51.473C14.5073 51.473 16.0557 60.8548 14.4069 66.6951C14.8568 68.2441 18.4508 69.793 20.4999 68.3427C22.0315 67.2582 21.2985 54.973 20.0996 53.1361L21.8997 39.9247C21.8997 39.9247 25.2573 38.7597 26.9741 36.6711C28.6901 34.5799 25.8442 28.1896 25.8442 28.1896Z" fill="#3E5FB5"/>
</svg>
