<svg width="20" height="13" viewBox="0 0 20 13" fill="none" xmlns="http://www.w3.org/2000/svg">
<path d="M9.71123 2.53736C11.72 2.53736 13.6688 2.9948 15.056 3.79736C16.244 4.47896 16.9232 5.34967 16.9232 6.18967C16.9232 7.02967 16.244 7.90063 15.0584 8.58223C12.2768 10.19 7.14085 10.1883 4.36405 8.58512C3.17845 7.90064 2.49925 7.02967 2.49925 6.18967C2.49925 5.34967 3.17845 4.47896 4.36405 3.79736C5.75125 2.9948 7.70003 2.53736 9.71123 2.53736ZM9.71123 12.2451C12.164 12.2451 14.4896 11.6835 16.256 10.6606C18.2336 9.52544 19.3232 7.93735 19.3232 6.18967C19.3232 4.44511 18.2336 2.8532 16.256 1.71608C12.7208 -0.319356 6.69925 -0.319356 3.16405 1.71608C1.18885 2.85608 0.0992489 4.44511 0.0992489 6.18967C0.0992489 7.93735 1.18885 9.52351 3.16405 10.6635C4.93045 11.6835 7.25603 12.2451 9.71123 12.2451Z" fill="white"/>
</svg>
