<svg width="32" height="71" viewBox="0 0 32 71" fill="none" xmlns="http://www.w3.org/2000/svg">
<path d="M12.9043 24.472L18.493 21.2522L18.8744 21.2857C19.1702 21.4538 19.4062 21.8744 19.4062 22.214L19.2532 22.5596L13.6698 25.7896L12.9043 24.472Z" fill="#EEAF99"/>
<path d="M13.8212 25.441C13.8264 25.1034 13.5851 24.686 13.2867 24.5147C12.9909 24.3463 12.7522 24.4813 12.7522 24.8206C12.7522 25.1662 12.9909 25.5787 13.2867 25.7521C13.5851 25.9233 13.8212 25.7835 13.8212 25.441Z" fill="#A52025"/>
<path d="M5.71971 11.323C5.71971 11.323 2.00694 9.8018 1.12999 12.5006C0.258223 15.1987 2.77489 21.6646 2.77489 21.6646C2.77489 21.6646 3.37429 22.9904 4.07482 22.5677C4.64821 22.2169 6.0752 17.8215 6.0752 17.8215L5.71971 11.323Z" fill="#E9E9EC"/>
<path d="M6.82349 9.43903C6.8157 10.3007 6.29939 11.4812 6.29939 11.4812L7.02074 13.0766L9.31947 14.3687L11.5404 14.0262L11.9477 13.2844C11.9477 13.2844 11.7012 11.7043 11.9529 10.5936C12.1734 9.64192 11.7506 8.78235 11.7506 8.78235L10.9903 7.65632L8.91736 8.05666L7.37103 8.25643C7.37103 8.25643 6.83387 8.57764 6.82349 9.43903Z" fill="#F1BFAD"/>
<path d="M14.3524 3.16481C14.7493 4.22079 14.5418 6.09171 14.6378 6.29954C14.8453 6.67756 14.4355 9.71291 13.4729 10.4679C13.1512 10.7152 11.9524 10.5927 11.9524 10.5927L10.3464 7.56723L12.3131 3.83966C12.3131 3.83966 14.1422 2.91833 14.3524 3.16481Z" fill="#F1BFAD"/>
<path d="M6.59263 9.28281C6.59263 9.28281 8.42953 10.6206 10.1238 10.268C11.0241 10.0427 11.3043 7.59843 12.2358 6.9031C12.6405 6.43582 12.8688 7.29539 13.1438 7.13116C13.2684 7.0611 13.8728 6.03964 13.9429 5.22469C14.0752 3.66485 14.3555 4.01252 14.3555 2.99001C14.3555 2.13952 10.3962 -1.65084 6.79495 2.59564C4.59997 5.5542 6.59263 9.28281 6.59263 9.28281Z" fill="#593217"/>
<path d="M6.2997 11.4803C9.27304 13.6179 11.948 13.2835 11.948 13.2835C11.948 13.2835 15.6894 16.036 16.6701 17.3486C19.2673 20.8258 16.8232 26.6321 16.9556 27.1744C17.0957 27.7166 16.8336 28.9184 16.8336 28.9184L16.035 32.8442L9.6162 32.7267L5.72439 28.8356L3.74938 21.0022L3.07996 19.9745C3.07996 19.9745 2.56364 18.9113 2.03695 16.2488C1.52583 13.7609 2.9735 10.562 6.2997 11.4803Z" fill="#D8D8DE"/>
<path d="M28.0414 28.4434C29.3283 28.1658 30.7137 29.6709 30.9187 30.2334C31.1003 30.7349 31.0432 31.4536 30.7319 31.9045C30.4828 32.2654 29.1466 33.2799 28.7107 33.2018C28.2723 33.1268 27.9091 32.9273 27.5588 32.5563C27.2112 32.1793 26.8998 30.6104 26.8998 30.6104C26.8998 30.6104 27.7534 28.5166 28.0414 28.4434Z" fill="#F1BFAD"/>
<path d="M24.1989 27.4602C24.1989 27.4602 27.0373 28.2772 27.9298 28.4098C28.8224 28.5395 28.4669 30.9761 26.8557 30.6953C25.6518 30.4854 23.3505 30.8564 23.3505 30.8564L24.1989 27.4602Z" fill="#F1BFAD"/>
<path d="M21.5774 26.7414C21.5774 26.7414 22.9603 25.8232 24.1408 26.9824C25.1449 27.9707 24.7427 30.2622 23.8035 30.9938C22.1585 32.2698 20.6538 30.485 20.6538 30.485L21.5774 26.7414Z" fill="#D8D8DE"/>
<path d="M12.8633 16.698C16.6098 14.8868 18.0575 20.5432 18.0575 20.5432L21.1035 26.3889C21.1035 26.3889 22.6291 26.7669 22.9275 26.8917C23.7292 29.0301 22.2529 30.8564 22.2529 30.8564C22.2529 30.8564 20.0553 30.7319 18.5582 29.9333C17.3258 29.2735 12.5207 21.7888 12.5207 21.7888C12.5207 21.7888 10.5775 18.0965 12.8633 16.698Z" fill="#E9E9EC"/>
<path d="M2.88175 64.1865C2.88175 64.1865 2.31614 66.9834 3.85548 66.9082C5.39093 66.8303 6.55561 64.3837 6.55561 64.3837C6.55561 64.3837 8.99812 62.91 8.84997 61.4908C8.84997 60.2402 6.12778 60.9148 6.12778 60.9148L2.88175 64.1865Z" fill="#352018"/>
<path d="M3.56272 35.1741C3.56272 35.1741 3.3126 41.1208 3.72903 47.9029C3.81127 49.413 2.33031 51.2136 2.22912 53.4085C2.17542 54.6695 2.15207 57.9282 2.20474 60.5617C2.24339 62.5283 2.25351 64.1499 2.67797 64.3342C5.65676 65.0321 7.19819 63.4702 7.27421 61.8252C7.35438 60.1777 7.65534 54.6202 8.07488 51.2862C9.72293 47.6409 10.9219 38.3006 10.9219 38.3006L3.56272 35.1741Z" fill="#294899"/>
<path d="M10.561 67.7069C10.561 67.7069 9.99747 70.2158 11.459 70.5141C15.9499 71.0512 19.267 70.2313 20.172 69.7046C20.7082 69.562 22.2678 67.3696 20.3979 67.0686C18.4552 66.7599 15.3933 66.132 15.3933 66.132L10.561 67.7069Z" fill="#352018"/>
<path d="M5.17732 27.8629C5.17732 27.8629 11.1409 31.1943 13.0917 31.1943C15.515 31.5082 16.3663 30.5093 16.8629 29.2406C18.9102 38.5135 16.5142 51.1463 16.5142 51.1463C16.5142 51.1463 14.9657 60.5282 16.6146 66.3685C16.1647 67.9174 12.5707 69.4664 10.5216 68.016C8.99 66.9315 9.72297 54.6463 10.9219 52.8094L9.1218 39.598C9.1218 39.598 5.76421 38.4331 4.0474 36.3445C2.33137 34.2533 5.17732 27.8629 5.17732 27.8629Z" fill="#3E5FB5"/>
</svg>
