<svg width="118" height="193" viewBox="0 0 118 193" fill="none" xmlns="http://www.w3.org/2000/svg">
<g id="illustration">
<g id="manager">
<g id="Group">
<path id="Vector_3" d="M36.4601 45.3802L23.3501 63.8602L24.0801 62.1302L18.0302 89.2502L11.2901 87.9902L15.4601 60.5202C15.5501 59.9202 15.7801 59.3802 16.1001 58.9202L16.1901 58.7902L29.3001 40.3102L36.4601 45.3802Z" fill="#FCC9A7"/>
</g>
<path id="Vector_4" d="M13.0105 97.5654C9.56046 96.5354 7.61046 92.8954 8.64046 89.4554C9.67046 86.0054 13.3105 84.0554 16.7505 85.0854C20.2005 86.1154 22.1505 89.7554 21.1205 93.1954C20.0905 96.6354 16.4605 98.5954 13.0105 97.5654Z" fill="#FCC9A7"/>
<g id="Group_2">
<path id="Vector_5" d="M64.8403 44.7477L73.1302 70.0877L68.6802 67.0677L95.6802 66.3377L96.1103 73.1877L69.2303 75.8377C67.2303 76.0377 65.4303 74.7977 64.8303 72.9677L64.7803 72.8177L56.4902 47.4777L64.8403 44.7477Z" fill="#FCC9A7"/>
</g>
<g id="perna-esq">
<path id="Vector_8" d="M9.37016 166.756L4.87016 175.566L10.1102 180.046L15.7702 169.476L9.37016 166.756Z" fill="#FCC9A7"/>
<path id="Vector_9" d="M3.93022 173.628C4.35022 173.278 4.93021 173.398 5.08021 173.888C5.38021 174.848 6.10022 176.228 7.90022 177.088C9.77022 177.978 11.0603 177.338 11.7603 176.748C12.1303 176.438 12.6303 176.468 12.8603 176.838L20.3003 188.668C20.7503 189.388 20.8903 190.298 20.6803 191.208C20.4903 192.068 19.5503 192.538 18.8903 192.118L0.730209 180.438C0.0202093 179.978 -0.10979 178.928 0.45021 178.138L3.22023 174.258C3.27023 174.198 3.3202 174.138 3.3802 174.088L3.93022 173.628Z" fill="#1F252A"/>
<path id="Vector_10" d="M58.7799 84.1227L41.0199 133.393L15.8799 175.053L4.66997 169.513L27.0199 127.983L39.2799 86.4427L58.7799 84.1227Z" fill="#092330"/>
</g>
<g id="perna-dir">
<path id="Vector_6" d="M63.3701 174.36L67.4301 185.55L73.3701 180.21L69.5802 171.24L63.3701 174.36Z" fill="#FCC9A7"/>
<path id="Vector_7" d="M65.0801 182.961C65.0801 182.411 65.5501 182.051 66.0201 182.251C66.9401 182.641 68.4701 182.981 70.2801 182.171C72.1701 181.321 72.5201 179.931 72.5201 179.011C72.5201 178.531 72.86 178.171 73.3 178.231L87.1301 180.221C87.9701 180.341 88.7601 180.831 89.3201 181.581C89.8501 182.281 89.6001 183.311 88.8601 183.531L68.2101 189.811C67.4001 190.061 66.5201 189.471 66.2801 188.531L65.1101 183.911C65.0901 183.831 65.0801 183.751 65.0801 183.681V182.961Z" fill="#1F252A"/>
<path id="Vector_11" d="M31.3403 84.8505C31.3403 84.8505 27.9803 91.2005 33.2003 101.351L49.4103 132.281L61.7603 179.161L74.0303 174.881L62.2903 127.471L49.6003 90.4805L58.7903 84.1305L31.3403 84.8505Z" fill="#0C2C40"/>
</g>
<path id="Vector_12" d="M46.63 30.1071L32.8001 32.9471C31.1701 33.2771 29.73 34.2171 28.76 35.5671L19.9601 47.8271L31.7201 55.5171L27.48 89.0871C27.48 89.0871 32.27 103.747 61.49 92.0571C61.49 92.0571 58.97 64.2371 60.66 46.1171L59.7999 34.1871L46.63 30.1071Z" fill="#00B1EB"/>
<g id="bat 1" clip-path="url(#clip0_3345_1972)">
<g id="layer1">
<path id="path1" d="M47.9424 47.8388V47.5468H48.1469C48.3266 47.5468 48.3514 47.5563 48.3514 47.6247C48.3514 47.6995 48.3762 47.7025 48.9835 47.7025C49.5661 47.7025 49.6215 47.6964 49.69 47.6247C49.7797 47.5308 49.7825 47.4935 49.7059 47.4133C49.6562 47.3613 49.5204 47.3522 48.795 47.3522H47.9424V47.138V46.9239H48.6276C49.201 46.9239 49.3224 46.9139 49.3713 46.8627C49.4034 46.8291 49.4297 46.7713 49.4297 46.7343C49.4297 46.5943 49.3543 46.5735 48.846 46.5735C48.4312 46.5735 48.3514 46.583 48.3514 46.6319C48.3514 46.6768 48.3039 46.6903 48.1469 46.6903H47.9424V46.4178V46.1453H48.6717C49.3457 46.1453 49.4116 46.1516 49.5411 46.2278C49.7253 46.3361 49.8468 46.5633 49.8359 46.7787C49.8286 46.9238 49.8454 46.9627 49.9771 47.1052C50.1433 47.2851 50.1929 47.4565 50.1375 47.6589C50.0811 47.8649 49.9942 47.9757 49.8265 48.0553C49.6887 48.1208 49.5749 48.1292 48.8069 48.1299L47.9424 48.1308V47.8388ZM50.2849 48.1057C50.2849 48.0735 51.6082 46.2318 51.7125 46.1188L51.7908 46.0339L52.5252 47.055C52.9291 47.6166 53.2596 48.0884 53.2596 48.1035C53.2596 48.1185 53.1527 48.1308 53.0221 48.1308H52.7847L52.2918 47.4495C52.0207 47.0748 51.7865 46.7682 51.7714 46.7682C51.7432 46.7682 51.4376 47.1765 51.4376 47.2142C51.4376 47.2259 51.5372 47.2354 51.659 47.2354C51.8787 47.2354 51.8814 47.2367 52.0122 47.4162C52.0848 47.5156 52.1441 47.612 52.1441 47.6303C52.1441 47.6486 51.9098 47.6636 51.6235 47.6636H51.1029L50.9296 47.8972L50.7564 48.1308H50.5207C50.391 48.1308 50.2849 48.1195 50.2849 48.1057ZM53.8629 47.4592L53.8731 46.7877L54.0683 46.7759L54.2635 46.7641V47.4475V48.1308H54.0581H53.8527L53.8629 47.4592ZM55.907 47.0167C56.4806 46.3968 56.3652 45.8399 55.5925 45.4988C55.2503 45.3477 54.8464 45.2812 54.2542 45.2785C53.9525 45.277 53.7128 45.2684 53.7216 45.2593C53.7304 45.2501 53.9186 45.2097 54.14 45.1696C54.8762 45.0361 55.8162 45.0825 56.2602 45.2744C56.5797 45.4124 56.7929 45.6872 56.7911 45.9588C56.7891 46.2689 56.4378 46.729 55.9367 47.0776L55.6951 47.2458L55.907 47.0167ZM52.8877 46.3594V46.1453H54.059H55.2303V46.3594V46.5735H54.059H52.8877V46.3594ZM56.9639 45.8883C56.9935 45.5881 56.9381 45.4065 56.7697 45.2517C56.5092 45.0123 56.2121 44.9371 55.5091 44.9327C54.9368 44.9291 54.9837 44.8931 55.6817 44.7999C56.8374 44.6458 57.4106 44.8344 57.3331 45.3434C57.3048 45.529 57.1634 45.8417 57.0322 46.009L56.9406 46.1258L56.9639 45.8883Z" fill="#004F9F"/>
</g>
</g>
<path id="Vector_13" d="M59.8101 34.1774L62.1101 35.0174C64.0101 35.7074 65.4901 37.2374 66.1201 39.1674L70.9101 53.7774L56.8301 56.3774L59.8101 34.1774Z" fill="#00B1EB"/>
<path id="Vector_14" d="M104.66 67.8124C104.66 71.4124 101.74 74.3324 98.1405 74.3324C94.5405 74.3324 91.6305 71.4124 91.6305 67.8124C91.6305 64.2124 94.5505 61.3024 98.1405 61.3024C101.74 61.3024 104.66 64.2124 104.66 67.8124Z" fill="#FCC9A7"/>
<g id="Group_3">
<g id="Group_4">
<path id="Vector_15" d="M50.5405 34.338L48.9705 35.208C45.9205 34.958 43.0505 34.308 43.3005 31.258L44.0305 22.318L55.0805 23.228L54.3505 32.168C54.1005 35.218 53.5905 34.588 50.5405 34.338Z" fill="#FCC9A7"/>
<path id="Vector_16" d="M43.8799 23.398C43.8799 23.398 45.3999 30.018 50.9599 29.788C55.8199 29.578 55.3599 22.318 55.3599 22.318L43.8799 23.398Z" fill="#F4BE9A"/>
</g>
</g>
<path id="Vector_18" d="M32.5303 53.1821L36.0904 48.9821" stroke="#009CE1" stroke-width="0.7693" stroke-miterlimit="10" stroke-linecap="round" stroke-linejoin="round"/>
<path id="Vector_19" d="M60.1305 55.7692L60.6705 47.0992" stroke="#009CE1" stroke-width="0.7693" stroke-miterlimit="10" stroke-linecap="round" stroke-linejoin="round"/>
<path id="Vector_20" d="M50.5404 34.3395L43.5204 30.0995C40.5204 28.8495 38.6104 31.7495 38.6104 31.7495L46.9704 39.9495L50.5404 34.3395Z" fill="#009CE1"/>
<path id="Vector_21" d="M50.54 34.3402L53.94 39.6002L57.34 33.4102C57.34 33.4102 56 31.3002 54.17 31.7902L50.54 34.3402Z" fill="#009CE1"/>
<g id="Group_6">
<path id="Vector_23" d="M112.63 66.4692L117.71 41.7892C117.84 41.1792 117.37 40.5992 116.74 40.5992H90.8902C90.4202 40.5992 90.0102 40.9292 89.9202 41.3992L84.9102 66.4792H112.63V66.4692Z" fill="#1D1D1D"/>
<path id="Vector_24" d="M114.84 42.4821L110.1 64.8721H86.6602L91.4002 42.4821H114.84Z" fill="#EFEFEF"/>
</g>
<g id="cabeca">
<path id="Vector" d="M42.3604 4.80237C42.3604 4.80237 39.5704 5.02239 39.3304 8.88239C39.0904 12.7424 39.0704 23.9424 44.3104 24.6324C49.5504 25.3224 45.7803 6.23239 45.7803 6.23239L42.3604 4.80237Z" fill="#1C2226"/>
<path id="Vector_2" d="M60.5601 8.25549C60.5601 8.25549 62.6801 14.1655 58.4501 15.2455C54.2101 16.3255 55.0001 7.75549 55.0001 7.75549L60.5601 8.25549Z" fill="#1C2226"/>
<path id="Vector_17" d="M50.0101 27.4371L49.0701 27.3371C44.3701 26.8271 40.9702 22.6071 41.4702 17.8971L42.0501 12.5371C42.5601 7.8371 46.7801 4.43709 51.4901 4.93709L52.4301 5.0371C57.1301 5.5471 60.5302 9.7671 60.0302 14.4771L59.4501 19.8371C58.9401 24.5371 54.7201 27.9371 50.0101 27.4371Z" fill="#FCC9A7"/>
<path id="Vector_25" d="M42.6102 16.6192H45.4802L46.0402 13.4692C46.0402 13.4692 49.0402 11.8592 48.4602 8.74917C48.4602 8.74917 61.0902 13.2792 63.0602 8.23916C65.6602 1.58916 56.2302 -0.0608258 48.4602 0.129175C40.6902 0.309174 41.2502 10.2292 41.2502 10.2292L42.6102 16.6192Z" fill="#1C2226"/>
<path id="Vector_26" d="M44.2902 15.987C44.1102 17.667 42.6002 18.877 40.9202 18.697C39.2402 18.517 38.0302 17.007 38.2102 15.327C38.3902 13.647 39.9002 12.437 41.5802 12.617C43.2602 12.797 44.4702 14.307 44.2902 15.987Z" fill="#FCC9A7"/>
</g>
</g>
</g>
<defs>
<clipPath id="clip0_3345_1972">
<rect width="9.39761" height="3.38314" fill="white" transform="translate(47.9424 44.7477)"/>
</clipPath>
</defs>
</svg>
