<svg width="27" height="73" viewBox="0 0 27 73" fill="none" xmlns="http://www.w3.org/2000/svg">
<path d="M15.9544 65.0094C17.0804 66.5814 20.6375 67.463 20.7075 68.3589C20.7231 68.6134 20.9021 69.4504 20.2509 69.7496C18.305 70.2239 14.709 68.3042 14.709 68.3042C14.709 68.3042 11.3386 68.2292 11.0403 67.5543C10.7367 66.8772 11.0403 64.7084 11.0403 64.7084C11.0403 64.7084 15.6586 64.5807 15.9544 65.0094Z" fill="#352018"/>
<path d="M7.14038 7.15736C7.29606 9.1165 6.71484 9.99501 6.71484 9.99501L7.29602 11.3623L9.18745 12.6544L10.9284 12.9585L11.961 11.4171L10.5678 8.45671L9.0759 7.41162C9.0759 7.41162 7.0833 6.71863 7.14038 7.15736Z" fill="#C59D8D"/>
<path d="M13.9216 8.39066C13.9216 8.39066 17.7304 8.86002 18.1922 12.92C18.6515 16.9781 19.6011 20.7217 19.6011 20.7217L21.0229 22.2087L19.2612 25.6929C19.2612 25.6929 16.8691 24.6247 16.0414 23.1066C15.4784 22.0769 13.3223 9.23596 13.3223 9.23596L13.9216 8.39066Z" fill="#E9E9EC"/>
<path d="M20.4173 26.1111C20.4173 26.1111 18.1627 26.9146 17.6515 24.9192C17.1741 23.0726 18.3754 21.3161 19.7531 21.0852C21.5277 20.784 22.3165 22.582 22.1323 23.3684C22.0726 23.6118 20.4173 26.1111 20.4173 26.1111Z" fill="#D8D8DE"/>
<path d="M10.9113 12.2189C9.69442 13.2181 6.56537 9.91834 6.71585 9.99514C6.267 10.5558 5.76627 11.0078 5.76627 11.0078L3.97087 12.6109C3.97087 12.6109 3.6517 12.9638 2.95117 13.3711L5.25775 29.4754L10.3197 30.334L16.2152 29.4754L17.0818 28.9098C17.0818 28.9098 18.3576 21.085 18.1786 17.0401C17.9087 11.0179 13.4409 9.20976 13.4409 9.20976L11.2875 9.6607C11.2875 9.6607 12.1281 11.2205 10.9113 12.2189Z" fill="#D8D8DE"/>
<path d="M13.5879 1.89046C15.9385 3.90927 15.0357 6.6984 15.0357 6.6984C15.0357 6.6984 14.4597 11.1973 14.0627 11.6252C13.6709 12.0528 12.903 12.2951 12.6409 12.3153C11.8548 12.3903 9.08121 10.3897 8.68684 9.90214C8.29766 9.41151 8.46368 8.47827 8.46368 8.47827C8.46368 8.47827 7.1716 7.94301 7.03928 6.73188C6.90696 5.51971 7.03928 4.82255 7.03928 4.82255L8.05378 2.61407L10.1969 1.28854H11.9508C11.9508 1.28854 13.2947 1.66966 13.5879 1.89046Z" fill="#F1BFAD"/>
<path d="M7.03993 6.73166C7.03993 6.73166 7.33829 5.38483 8.06736 6.14996C8.41762 6.5189 8.27753 6.73996 8.53958 7.16754C8.80163 7.59823 9.4503 7.85276 9.61375 7.67633C9.77721 7.50509 9.95619 5.60563 9.76419 4.98242C9.5696 4.35817 8.49546 3.86469 9.24009 3.03444C9.97954 2.20445 12.8283 4.6197 13.7857 3.68515C14.4396 2.97165 12.7713 -2.0096 8.01548 0.909258C5.26527 2.60064 7.03993 6.73166 7.03993 6.73166Z" fill="#593217"/>
<path d="M17.8998 33.8749C18.3876 40.869 16.6078 49.1502 16.3094 50.6968C15.6582 56.192 16.5091 62.7715 16.4573 64.2187C16.408 65.667 11.4135 66.8346 10.7156 64.2867C10.3523 61.9 10.3679 54.7284 11.263 51.2826C11.6132 49.9366 10.1162 39.0447 10.1162 39.0447C10.1162 39.0447 17.7623 32.4785 17.8998 33.8749Z" fill="#294899"/>
<path d="M5.73994 66.759C5.66729 67.5293 8.03867 70.9417 7.46528 71.862C6.94378 72.6982 4.43489 72.3739 3.41264 71.5742C2.3878 70.7777 1.59643 68.1993 1.36032 67.2699C1.12163 66.3436 1.36032 65.0098 1.36032 65.0098L5.317 65.5866C5.317 65.5866 5.81259 65.989 5.73994 66.759Z" fill="#352018"/>
<path d="M23.3572 24.7705C21.7901 23.5734 20.5655 22.2894 20.5655 22.2894C20.5655 22.2894 19.5926 21.7684 18.7364 23.2442C17.8283 24.8058 18.918 25.3431 18.918 25.3431C18.918 25.3431 20.8639 26.1397 22.1041 26.7681C22.3428 25.9451 22.9654 25.4192 23.3572 24.7705Z" fill="#F1BFAD"/>
<path d="M22.1625 25.126C22.5362 24.7166 24.3549 24.3609 25.5536 25.5951C26.1918 26.2549 26.0958 27.2048 25.8364 27.8705C25.5717 28.5352 25.0295 29.6613 24.2589 29.5134C23.5999 29.3785 23.9968 28.2161 23.9968 28.2161C23.9968 28.2161 22.9876 27.7673 22.7074 27.0587C22.7074 27.0587 22.4064 27.2097 22.1054 26.854C21.807 26.4931 21.7863 25.5354 22.1625 25.126Z" fill="#F1BFAD"/>
<path d="M17.1119 27.967C17.1119 27.967 11.3235 32.3076 9.17003 32.1992C6.48727 32.0645 4.89943 29.9129 4.89943 29.9129C4.89943 29.9129 3.56325 32.2096 3.16369 33.6345C2.76413 35.0584 2.94055 48.2804 2.24262 50.1402C1.53691 52.003 1.19187 52.387 0.851982 53.812C0.519881 55.2361 0.641776 62.376 0.867501 64.6514C1.09063 66.9216 4.58812 67.8479 5.91133 66.2476C5.76345 60.3287 5.93986 54.4261 7.00103 52.4449C8.4851 49.668 10.7398 39.2714 10.885 38.8619C13.9025 37.3052 17.9003 34.4527 17.9003 33.8749C17.9003 33.3033 17.1119 27.967 17.1119 27.967Z" fill="#3E5FB5"/>
<path d="M14.7021 29.9898C14.7021 29.9898 16.456 28.9447 17.1306 28.8303C18.9312 28.4694 18.7574 29.5459 18.7574 29.5459C18.7574 29.5459 21.3909 29.5773 21.5232 30.1691C21.985 32.2266 20.1221 33.02 18.8819 33.1629C16.9153 33.3861 14.7021 32.6705 14.7021 32.6705V29.9898Z" fill="#F1BFAD"/>
<path d="M10.9679 29.0954C10.9679 29.0954 12.0862 29.6709 14.7975 30.0014C15.9027 30.4991 15.3657 32.7073 14.59 32.6709C14.1489 32.6629 12.9631 32.6497 10.1403 32.5482C9.94829 31.9574 10.9679 29.0954 10.9679 29.0954Z" fill="#F1BFAD"/>
<path d="M8.23348 28.572C8.23348 28.572 9.7798 27.1816 11.2613 28.6187C12.3899 29.7162 11.884 32.0593 10.6853 32.7728C8.7368 33.9274 7.63672 32.1779 7.63672 32.1779L8.23348 28.572Z" fill="#D8D8DE"/>
<path d="M3.04678 13.3299C-0.307956 14.7538 1.24619 20.3533 1.24619 20.3533C1.24619 20.3533 3.04678 30.8633 4.14167 31.6133C5.24176 32.3632 9.2633 32.8691 9.66026 32.4828C10.0598 32.0936 10.7396 29.9764 9.98718 28.7643C9.56167 28.0741 6.60129 27.9859 6.86594 27.9789C7.31479 24.4581 6.04089 18.7753 6.04089 18.7753C6.04089 18.7753 5.68802 12.6011 3.04678 13.3299Z" fill="#E9E9EC"/>
</svg>
